<svg xmlns="http://www.w3.org/2000/svg" id="Layer_1" height="512" viewBox="0 0 512 512" width="512"><g><path d="m89.6004 255.1256c-6.4454 5.6039-12.4754 10.9005-18.5651 16.1276-7.2542 6.2266-14.5134 12.4492-21.8599 18.5661-4.5178 3.7617-8.1637 3.3557-11.9961-1.2228-8.0127-9.5728-12.5264-20.9025-15.8027-32.7296-4.123-14.884-5.982-30.1029-5.1235-45.5527.5982-10.7655 2.5895-21.296 8.1622-30.7205 6.7715-11.4519 17.5416-17.8987 29.7069-22.0401 10.5065-3.5767 21.3652-5.9949 32.5296-6.2127 5.7474-.1121 11.5085.4812 17.31.758-2.205-13.5201 4.1937-24.4974 11.241-35.0634 4.0603-6.0875 9.0706-11.5414 13.7439-17.3939-1.2808-.4484-2.885-.9189-4.4166-1.5622-6.6438-2.7906-8.9556-6.1137-8.7268-13.3192.0837-2.6343-.7163-4.3114-2.9495-5.494-18.1966-9.6358-23.1282-35.6471-9.2487-53.518 5.2122-6.7111 11.5049-12.0067 19.104-15.7367 6.1088-2.9985 12.2056-3.3746 18.5751-.3304 2.0198.9653 4.7479.7499 7.1231.6047 4.4303-.271 8.8346-1.2198 13.2584-1.2836 7.3942-.1066 12.388 5.4997 11.8883 12.9004-.1335 1.9775-.4042 3.9613-.8076 5.9015-.746 3.5878.0587 6.5283 3.0832 8.7817 5.002 3.7267 10.1171 7.325 14.8773 11.3416 1.9418 1.6385 3.5637 4.0512 4.437 6.4388.7278 1.9898.1492 4.4574.1492 6.7303 4.0979-.5919 8.5517-1.4202 13.0437-1.846 9.6435-.9142 19.2367-.5694 27.9515 4.1828 3.6281 1.9784 6.6444 5.079 10.3731 8.0108 2.0305-3.9093 4.5702-8.3006 6.6423-12.9025 3.2717-7.266 6.5914-14.4621 11.9245-20.515 6.1541-6.9847 13.9357-11.5524 22.3913-15.1272 11.6269-4.9156 23.6443-8.1514 36.3633-8.003 14.217.1658 27.1152 4.5186 37.9252 13.7593 7.9706 6.8135 15.2597 14.4236 22.8633 21.6673 5.6323 5.3657 5.5982 15.5508 1.4633 21.3638-4.5859 6.4473-10.2464 11.0746-18.0393 12.8749-9.0841 2.0986-17.9649 4.7154-25.6918 10.2171-1.8265 1.3006-3.5937 2.6846-5.5631 4.1614 66.3221 17.3453 114.477 56.2629 142.0141 118.8284 20.7228 47.0832 22.6595 95.9933 6.8956 144.8481-32.4761 100.6483-132.6737 158.3309-235.815 138.1178-56.0506-10.9845-100.1823-41.1119-131.5864-88.8712-31.4486-47.8275-39.3614-100.3787-28.8483-156.7377zm82.4702-208.8074s.0461.1133.0461.1133c-.2158-.2458-.4316-.4916-.6474-.7373-2.271-2.394-4.5421-4.7879-6.8132-7.1818-.844-3.8813-1.6879-7.7626-2.655-12.2101-2.2584.9247-4.9432 2.0239-7.628 3.1232-3.6476 5.2234-8.4777 7.3797-14.7864 5.7012-3.262-.2212-6.5525-.8072-9.7776-.5555-2.9124.2273-3.5797 1.656-2.9877 4.552.9346 4.5727-.4648 8.1778-4.2825 10.8639-2.0851 1.467-4.1824 2.9209-6.2082 4.4672-2.3087 1.7623-3.2424 4.0994-2.6287 7 .332 1.569.6086 3.1495.9229 4.7223.4044 2.0231 1.3425 3.4507 3.2874 4.592 5.4302 3.1867 9.1771 7.8034 6.5528 15.0775-.807 2.2368.1886 4.1264 2.1587 5.3451 2.5384 1.5702 5.1591 3.0076 7.3616 4.2809 5.4504-3.7254 10.6596-7.286 15.8687-10.8465 1.5178-.7478 3.2702-1.2213 4.5162-2.287 9.8877-8.4564 20.8341-15.0176 33.2411-19.0564.625-.1619 1.2499-.3238 1.9265-.4991-1.0704-1.1853-2.4056-2.1265-2.9972-3.4103-2.8305-6.1431-8.367-9.2007-13.7368-12.4857l-.0615.0406c-.224-.2032-.4479-.4064-.6718-.6095zm140.1136 24.2684c.3663-.2301.7326-.4602 1.0989-.6904 12.9643-8.9637 27.0465-15.3583 42.5395-18.5098 4.3832-.4111 8.7664-.8222 13.6486-1.2801-1.2041-1.0222-2.0392-1.7313-2.8742-2.4403-2.5783-2.4874-5.121-5.0129-7.7405-7.456-18.3663-17.1295-40.2021-17.769-61.9991-9.1291 0 0-.1837-.0267-.1837-.0267-.198.0495-.396.099-.5939.1486-4.7463 2.2833-9.4926 4.5667-14.239 6.85-.7725.5044-1.545 1.0088-2.3174 1.5131-1.3333 1.1406-2.6665 2.2812-3.9998 3.4218-2.9626 3.9989-6.5071 7.6963-8.7678 12.059-4.8414 9.3429-9.0446 19.0092-17.1335 26.2077-.428.3809-.6411 1.1213-.7448 1.73-1.0083 5.9183-1.9718 11.8441-3.0177 18.1905-.1126-.0509.5501.2487 1.2127.5484 6.5571 3.3498 13.2596 5.3541 20.5177 2.2175 2.59-1.3368 5.4395-2.3332 7.7222-4.073 7.3562-5.6068 14.5051-11.4858 21.731-17.2635 4.4855-3.5865 8.9658-7.1796 13.4484-10.7697 0 0 .0653-.0731.0653-.0731.5373-.3755 1.0746-.7509 1.6118-1.1264 0 .0001.0153-.0485.0153-.0485zm-88.4091 44.6843c-.1941.3913-.3882.7825-.5823 1.1738-1.891 5.3325-3.7246 10.6863-5.6972 15.9884-1.0014 2.6918-2.2534 5.2905-3.3922 7.9312-.0291-1.517-.0582-3.034-.0872-4.551.6319-3.4084 1.2639-6.8168 1.8957-10.2253 1.8889-4.1376 3.7225-8.3015 5.6809-12.4059 2.3205-4.8635 4.8003-9.6141 10.045-12.0971.5822-.2756 1.0153-1.0854 1.2944-1.7423.9528-2.2427 1.8059-4.5278 2.697-6.7967.5373-1.8823 1.3073-3.7333 1.5653-5.6531.6106-4.5441.0712-8.8475-3.6214-12.1571-3.9736-3.594-8.9164-4.9341-14.0003-5.5383-17.4301-2.0715-33.8566 1.3631-49.3552 9.4857-4.9375 2.026-9.4283 4.7172-13.023 8.7433 0 0 .0316-.0211.0316-.0211-.2369.1906-.4738.3813-.7106.572-1.1236.9069-2.2473 1.8138-3.37 2.7216-.3467.2276-.6934.4553-1.0401.6829-4.9556 4.5504-9.9113 9.1008-14.8669 13.6513-.7336.7573-1.4673 1.5145-2.2009 2.2718-3.6285 4.5618-7.257 9.1236-10.8856 13.6853-.8144 1.1257-1.7325 2.1914-2.4257 3.3874-3.3375 5.7583-6.7087 11.512-7.7317 18.254-.1456.5831-.2912 1.1662-.4369 1.7493-.6434 5.5265 1.1821 8.8462 6.8066 11.6821 7.4474 3.755 15.5072 4.9407 23.7395 5.2513 4.1837.0025 8.3674.005 12.5512.0075 1.1555-.0306 2.3109-.0611 3.4664-.0917.7691-.1022 1.5383-.2045 2.3074-.3068 17.4289-1.1687 33.9825-5.8095 49.9935-12.6029 2.9458-.5422 5.8917-1.0844 8.7006-1.6014 0-4.8555-.5501-9.8762.1436-14.7187.8097-5.6521 2.7055-11.1486 4.1301-16.7126 1.5906-3.4765 3.1812-6.953 4.7718-10.4296-3.3289 2.8258-5.1784 6.4537-6.4149 10.4346zm-151.9234 46.2425c-3.7053 1.104-7.4107 2.2079-11.116 3.3119-2.7455 1.0118-5.4909 2.0235-8.2364 3.0353-.1633.1228-.3267.2456-.4901.3684l-.0426.0287c-5.3773 2.5195-10.3851 5.5585-14.2821 10.1591-.7578.8874-1.5156 1.7747-2.2734 2.6621-.6439.8041-1.3972 1.5436-1.9151 2.422-6.6162 11.2202-7.533 23.6667-7.4272 36.2327.0469 5.5638.7608 11.1419 1.4676 16.6758 1.1766 9.2123 3.0838 18.2698 6.7504 26.8701 2.3259 5.1643 4.6519 10.3285 7.2968 16.2009 6.0674-6.4902 11.3915-12.1853 16.7156-17.8804 8.9176-9.055 17.8351-18.1099 26.7523-27.1663.7894-.7896 1.5787-1.5791 2.368-2.3687 3.5574-3.1187 7.2187-6.1292 10.626-9.4041 1.5803-1.5189 3.0312-3.3897 3.9166-5.3788 5.5541-12.4777 11.9904-24.4444 19.9459-35.5649 2.629-3.6749 5.3274-7.3001 8.0254-10.9909-4.5225-1.6389-8.853-3.2082-13.1835-4.7775-1.0763-.6183-2.1527-1.2367-3.229-1.855-.5287-.3421-1.0574-.6842-1.587-1.0263-1.9266-2.0467-3.734-4.5512-6.9828-3.9342-1.5366.2918-2.7979-.1628-4.194-.267-8.7577-.6536-17.4861-.4829-26.0175 2.0019-.9626.2151-1.9253.4301-2.8879.6452zm327.7728 254.8305c.1915-.0032.3831-.0064.5746-.0097 2.4618-3.9923 4.9235-7.9846 7.3852-11.9769l1.1349-1.1349-.0246-.0219c-.1038.9887-.2076 1.9775-.3114 2.9662-2.5449 4.5109-5.0899 9.0217-7.6348 13.5325-5.8954 4.3433-11.7908 8.6866-17.6862 13.0298-1.0383.6603-2.123 1.2581-3.1073 1.9908-6.7624 5.0349-6.7761 5.7037-1.2283 12.1907 1.5157 1.7722 3.3575 2.377 5.3034 1.6924 3.0022-1.0563 5.845-2.5657 8.7554-3.8829 7.7466-2.8592 14.3846-7.2864 18.7805-14.389 2.2311-3.6048 6.08-6.3508 6.2828-11.1098.1332-.2191.2665-.4383.3997-.6574.0345-.3754.0689-.7507.1034-1.1261.6243-1.3788 1.2486-2.7577 1.873-4.1366.3283.1162.6566.2325.985.3486-.8191 2.7499-1.6428 5.4984-2.4544 8.2505-.2621.8885-.8769 1.8928-.6651 2.6605.6604 2.3938 1.8126 4.654 2.446 7.0526.6439 2.4384 1.7918 2.6123 3.9273 1.7717 2.2442-.8833 3.0454-1.9579 1.8006-4.237-.5306-.9715-.881-2.1186-1.0074-3.2209-.6324-5.5157-1.1469-11.0448-1.7367-16.5655-.2993-2.8007-.6701-5.5938-1.0085-8.3903.5241.7491.8061 1.5434.9991 2.3589 1.3376 5.6507 2.6566 11.3058 3.9815 16.9595.0659.9232.1317 1.8464.1975 2.7696v9.3158c2.3068-1.0262 4.5486-1.4458 5.9343-2.7649 2.5798-2.4558 4.661-5.4353 6.9498-8.1968 1.3626-1.6534 2.8369-3.2283 4.0641-4.9767 2.3346-3.3264 4.5279-6.7521 6.7798-10.1365.8325-1.5417 2.7713-3.871 2.323-4.5007-3.6742-5.1601-7.5797-10.309-14.8164-10.5884-2.4253-.8592-5.0265-1.5577-4.5914-5.0286 1.9351-1.1688 3.7429-2.7293 5.8367-3.409 2.7366-.8883 5.8634-.6473 8.5315-1.6591 5.9543-2.2577 11.6058-5.3492 17.6191-7.4035 3.9389-1.3457 4.945-4.0537 5.5946-7.4394l-.0165-.2635c1.4811-4.1217 3.0006-8.2307 4.3916-12.3826.1622-.4842-.2345-1.3377-.6311-1.7957-1.7223-1.989-3.5164-3.9188-5.3608-5.795-.1897-.193-.8886.1147-1.3513.1901-3.7764 5.0488-7.9498 9.6487-14.0142 12.6091.3848-1.1995.6583-2.0521.9318-2.9046 2.5543-4.2908 5.2208-8.5195 7.6367-12.8869 3.6843-6.6603 6.4146-13.6738 6.525-21.4158.0161-1.1264-.5872-2.9043-1.416-3.2952-5.169-2.4381-10.6702-3.4893-16.6334-3.1433v3.7838c-1.9734 11.2621-4.2237 22.4516-8.675 33.0637-1.5835 3.2123-3.093 6.4647-4.7998 9.6101-.4562.8407-1.5153 1.3543-2.2975 2.0181.0141-.9969-.2755-2.128.0953-2.9674 1.5201-3.4417 3.3639-6.7411 4.8657-10.1899 4.4606-10.2435 7.56-20.8672 8.5567-32.0437.2845-1.0436.569-2.0872.9654-3.5411-1.9105.2702-3.4467.4874-4.9829.7047-.9542 1.0368-2.4432 1.9258-2.7775 3.134-2.5351 9.1652-5.8358 18.1932-5.2116 27.9756.2923 4.5814-1.981 8.407-4.1521 12.4739-.3817-2.6368-.7149-4.9381-1.0481-7.2395-.0543-3.7889-.1086-7.5777-.1629-11.3666-.096-.2034-.192-.4069-.2881-.6104-.8711-4.0174-1.7422-8.0349-2.6155-12.0512-.595-1.8637-1.1715-3.7335-1.7903-5.5892-.5683-1.7046-1.8344-2.1616-3.3586-1.4762-2.0559.9244-4.0662 1.9726-6.0182 3.1021-7.5435 4.3649-14.3187 9.7136-20.2953 16.0645-1.0676 1.0432-2.1455 2.076-3.2 3.1323-1.1864 1.1885-1.6019 2.3623-.4057 3.9225 2.0005 2.6091 3.7835 5.3835 5.73 8.0355 3.0579 4.1662 6.4026 8.1423 9.196 12.4759 2.2245 3.4508 1.7536 4.0232-2.3471 5.0121-3.072-.4811-6.1661-.8528-9.211-1.4681-4.8946-.9893-9.7567-2.1396-14.6328-3.2218-.63-.1862-1.2491-.4349-1.8919-.5485-4.4413-.7847-4.6018-.8199-5.809 3.528-2.6011 9.3675-5.0901 18.7679-7.4686 28.1943-.5946 2.3564-.5956 4.8625-.9128 7.6864 1.4163-.386 2.1604-.5086 2.8407-.7872 4.9012-2.0069 9.7369-4.1865 14.696-6.0364 5.564-2.0755 11.2359-3.8619 16.8608-5.7741 1.7263-.4065 3.4527-.813 5.5986-1.3183-.7292 2.4479-1.3035 4.3762-1.8778 6.3044-.5465.6359-1.1565 1.2279-1.6294 1.9145-3.9251 5.6986-8.4344 10.8365-13.8099 15.2463-5.5348 4.5405-10.9571 9.2245-16.2989 13.991-2.6251 2.3423-2.4858 4.8484.126 7.6198 2.8095-2.4496 5.6268-4.906 8.4442-7.3623 5.6635-4.2611 11.3361-8.5103 16.9703-12.8098.3795-.2896.4697-.9584.6945-1.4508zm-328.2801-160.9712c-8.2449 7.7163-16.4897 15.4325-24.7346 23.1488.1922.2069.3844.4138.5767.6207 3.3548-2.8897 6.7437-5.7411 10.057-8.6776 5.8716-5.2038 11.6974-10.4593 17.5424-15.6932 6.5071-5.8936 13.0703-11.7276 19.462-17.7438.9826-.9249 1.1754-2.689 1.7335-4.065-.2823-.1802-.5645-.3605-.8468-.5407-7.9302 7.6503-15.8602 15.3006-23.7902 22.9508zm389.7128 134.7519c1.7982-3.2263 3.5963-6.4527 5.3958-9.6814-7.9556 2.416-15.4558 4.6937-22.4129 6.8064 1.6639 1.0775 3.9312 2.5457 6.1985 4.0139 2.111 2.2573 4.222 4.5146 6.7144 7.1797 1.4722-2.9838 2.7882-5.6512 4.1042-8.3186zm-311.0579-363.4254c3.8617-3.7914 8.1133-5.74 13.3355-2.6049 1.3024-5.2535.7481-6.1367-4.247-5.9165-3.184.1403-6.3585.733-9.5119 1.2716-4.0693.695-8.1112.9966-11.9062-.9587-3.9266-2.0231-7.6158-1.5824-11.266.5958-9.6384 4.9512-16.9486 12.1711-20.1437 22.6465-2.799 9.1768-.5498 17.5884 5.8529 24.8072-.0692-1.0229-.3243-2.0001-.6363-2.9587-1.7285-5.3098-.9728-9.8519 3.8858-13.2622 1.5356-1.0778 2.8999-2.3996 4.3426-3.6097 2.6923-1.5584 3.1956-3.9407 2.7023-6.8065-1.0088-5.861 1.0466-9.2363 6.9929-9.9304 3.9311-.4589 8.039.2343 12.0283.7296 4.8739.605 5.9978.2213 8.5708-4.0031zm154.0098 67.8631c7.404.8576 14.8239 1.6026 22.202 2.6433 2.1411.302 3.3525-.432 4.8991-1.7026 4.8015-3.9447 9.4502-8.3134 14.8549-11.224 6.425-3.46 13.4692-5.8922 20.4368-8.1879 6.8917-2.2707 13.5384-8.1823 14.8717-16.8741-5.7111-.0685-11.3317-.1359-16.9523-.2032-10.1006.366-19.5276 3.3962-28.6321 7.488-12.3607 5.5552-23.0171 13.7684-33.6082 22.0472-2.1546 1.6842-4.1737 3.5417-6.623 5.6333 3.2804.1457 5.9157.2629 8.5511.38zm94.4051 305.1746c-.3532.1218-.7603.1682-1.0517.3765-8.1018 5.7875-17.4704 8.937-26.6035 12.4746-7.5462 2.9229-11.6235-.7856-10.2802-8.7576.0313-.1855.1092-.3632.1421-.5486.7077-3.9827 1.4121-7.9659 2.1172-11.949.3423-1.0683.7025-2.1312 1.024-3.2056 2.1392-7.1473 4.1032-14.3527 6.4629-21.4263 1.553-4.6555 4.0175-5.771 8.8417-4.5617 6.3172 1.5835 12.5995 3.3064 18.8975 4.9664 2.6467.6976 5.2954 1.3875 7.9432 2.0809-.3643-1.4011-.9677-2.2289-1.6121-3.0238-4.882-6.0224-9.688-12.1096-14.7017-18.0204-1.9566-2.3068-1.6255-4.3051-.0003-6.3508 1.4673-1.8468 3.0846-3.5826 4.7206-5.2859 7.6559-7.9705 16.2203-14.7556 26.0956-19.8044 6.0663-3.1014 9.7653-1.8888 12.5966 4.2639 1.1674 2.5369 2.0582 5.201 3.1715 8.0551.9771-4.5242 1.8228-8.7323 2.8089-12.9072.699-2.9592 2.5864-4.6051 5.6866-5.1578 7.6607-1.3658 15.2362-1.1549 22.7334.8724 6.1949 1.6751 8.4742 3.9086 8.7623 8.8966.1397 2.4189-.1161 4.9336-.6488 7.3024-.9266 4.1206-2.2066 8.1619-3.3799 12.3854 1.9399 1.4797 4.0199 3.0663 6.5124 4.9675 1.0089-4.727 1.927-9.028 2.845-13.3291 2.8694-16.3085 3.8079-32.7151 2.168-49.209-2.2573-22.7032-8.034-44.4466-17.7002-65.1778-6.1169-13.1189-13.575-25.397-22.3973-36.802-11.2387-14.5288-24.3232-27.2115-39.2504-38.0091-18.1938-13.1605-37.991-22.9382-59.4996-29.369-14.214-4.2498-28.716-6.9037-43.4877-7.7203-10.168-.5621-20.6571-2.1376-29.8792 4.3327-6.8056 2.9245-13.7809 3.2649-20.751.8808-3.0291-1.0361-5.5093.5703-8.2509.7959-3.815.314-4.4188 3.3515-5.5579 5.9645-4.3454 9.968-6.0584 20.4275-5.6328 31.2526.0803 2.0424-.4429 3.3461-2.5468 4.1028-2.3766.8548-4.6208 2.0884-6.8969 3.2092-2.8734 1.4149-5.6239 3.1361-8.5999 4.2739-6.0868 2.3271-12.2889 4.3528-18.4435 6.5026-2.5705.566-5.1474 1.1045-7.7104 1.7026-13.4804 3.1457-27.1391 4.4017-40.9695 4.0165-.9937-.0277-2.392.3393-2.948 1.0411-3.3933 4.283-6.5973 8.716-9.8645 13.099-2.4509 3.4541-5.134 6.7684-7.3138 10.3859-11.0304 18.3054-19.5001 37.6539-24.1464 58.635-3.5829 16.1791-6.3642 32.4045-4.9098 49.0339.9189 10.5073 1.7216 21.073 3.5417 31.443 3.727 21.2348 11.6 41.0921 22.3589 59.7034 10.0361 17.361 22.4262 32.9072 37.4288 46.3669 11.9568 10.7272 24.9043 19.9357 39.0242 27.5568 16.1724 8.729 33.2618 15.0543 51.2025 18.8367 8.6437 1.8223 17.5042 2.7173 26.3062 3.664 13.7979 1.4839 27.6276.8858 41.2395-1.5073 10.935-1.9224 21.7234-4.7979 32.4561-7.6976 4.9533-1.3383 9.6181-3.7444 14.4137-5.6663 4.6457-2.0848 9.3433-4.062 13.9272-6.2746 13.4536-6.494 25.5455-15.0763 37.0465-24.5253 2.3011-1.8906 4.3956-4.0326 6.2174-5.7183-2.3297-2.1947-4.4294-4.1725-6.684-6.2965-1.0161 1.1842-2.212 2.7592-3.5902 4.1541-7.678 7.7714-17.4398 11.8665-27.5459 15.2058-2.9323.9688-6.0643.1422-7.9834-2.4192-2.9864-3.986-5.9441-8.0707-8.27-12.4553-3.079-5.8042-1.9881-9.8408 3.0523-13.9973 5.3961-4.4499 11.0822-8.574 16.2338-13.2863 4.0708-3.7237 7.524-8.1226 11.2495-12.2235.0772-.1145.1544-.2291.2315-.3437-.1173.0754-.2342.1503-.3511.2252z" fill="#241536"></path><path d="m194.7711 167.0787c6.1546-2.1498 12.3567-4.1755 18.4435-6.5026 2.9761-1.1378 5.7265-2.859 8.5999-4.2739 2.2762-1.1208 4.5203-2.3545 6.8969-3.2092 2.1039-.7567 2.6272-2.0604 2.5468-4.1028-.4256-10.8251 1.2874-21.2846 5.6328-31.2526 1.1391-2.613 1.7429-5.6506 5.5579-5.9645 2.7416-.2257 5.2218-1.8321 8.2509-.7959 6.97 2.3841 13.9454 2.0437 20.7511-.8807 1.569.5948 3.0911 1.4335 4.7143 1.7439 8.8849 1.6989 17.8523 3.0059 26.6815 4.9472 11.4246 2.512 22.7841 5.3482 34.097 8.3285 7.0012 1.8444 14.1647 3.3913 20.2842 7.6822 3.4026 2.3859 6.9202 4.6092 10.4062 6.8746 13.6203 8.8515 25.9773 19.3376 37.1547 30.9949 9.2505 9.6476 17.8459 20.0484 25.7466 30.8369 12.7761 17.4459 23.0892 36.4397 31.4116 56.395 9.02 21.6281 14.9139 44.1678 17.9784 67.4292.2991 2.2703 1.0375 4.4826 1.5719 6.7219-.918 4.3011-1.836 8.6021-2.845 13.3291-2.4925-1.9012-4.5724-3.4877-6.5124-4.9675 1.1733-4.2235 2.4533-8.2648 3.3799-12.3854.5327-2.3688.7885-4.8835.6488-7.3024-.2881-4.9879-2.5674-7.2214-8.7623-8.8966-7.4972-2.0273-15.0727-2.2383-22.7334-.8724-3.1003.5527-4.9877 2.1986-5.6866 5.1578-.9861 4.1749-1.8318 8.3829-2.8089 12.9072-1.1133-2.8541-2.0041-5.5182-3.1715-8.0551-2.8314-6.1527-6.5303-7.3653-12.5966-4.2639-9.8753 5.0488-18.4397 11.8338-26.0956 19.8044-1.636 1.7032-3.2533 3.4391-4.7206 5.2859-1.6252 2.0457-1.9563 4.044.0003 6.3508 5.0137 5.9109 9.8197 11.9981 14.7017 18.0204.6443.7948 1.2478 1.6227 1.6121 3.0238-2.6478-.6934-5.2965-1.3834-7.9432-2.0809-6.298-1.66-12.5803-3.3829-18.8975-4.9664-4.8242-1.2093-7.2887-.0939-8.8417 4.5617-2.3596 7.0735-4.3237 14.279-6.4629 21.4263-.3216 1.0745-.6817 2.1374-1.0248 3.2052-2.9759-.4634-5.9836-.7766-8.9207-1.4143-15.6822-3.405-31.2002-7.4993-45.8198-14.1925-10.28-4.7064-20.4965-9.7345-30.1251-15.626-8.5604-5.2379-16.567-11.5091-24.2896-17.9572-11.198-9.3499-21.2783-19.9105-29.3648-32.1081-5.8267-8.7889-11.4922-17.7638-16.2655-27.1462-3.6544-7.1831-5.9963-15.0676-8.5806-22.7549-6.3039-18.7521-8.5861-38.1993-9.0686-57.8518-.269-10.9547 1.2826-21.7921 4.1807-32.4015.244-.8938.1988-1.866.288-2.8016z" fill="#73538e"></path><path d="m194.7711 167.0787c-.0892.9356-.0441 1.9079-.2881 2.8012-2.8981 10.6093-4.4496 21.4468-4.1807 32.4015.4825 19.6525 2.7647 39.0998 9.0686 57.8518 2.5843 7.6873 4.9261 15.5718 8.5806 22.7549 4.7733 9.3824 10.4389 18.3573 16.2655 27.1462 8.0865 12.1976 18.1669 22.7581 29.3648 32.1081 7.7226 6.4481 15.7293 12.7194 24.2896 17.9572 9.6286 5.8916 19.8451 10.9196 30.1251 15.626 14.6196 6.6932 30.1376 10.7875 45.8198 14.1925 2.9372.6378 5.9448.9509 8.9207 1.4143-.7043 3.9836-1.4087 7.9668-2.1164 11.9495-.033.1854-.1108.363-.1421.5486-1.3433 7.9719 2.734 11.6805 10.2802 8.7576 9.1331-3.5377 18.5018-6.6871 26.6035-12.4746.2914-.2083.6985-.2547 1.0517-.3765 0 0 .1212.1208.1212.1208-3.7275 4.099-7.1807 8.4979-11.2515 12.2216-5.1516 4.7123-10.8377 8.8364-16.2338 13.2863-5.0404 4.1566-6.1313 8.1932-3.0523 13.9973 2.3259 4.3845 5.2836 8.4693 8.27 12.4553 1.9191 2.5614 5.0511 3.3881 7.9834 2.4192 10.1061-3.3392 19.8679-7.4344 27.5459-15.2058 1.3782-1.3949 2.5742-2.9699 3.5902-4.1541 2.2546 2.1239 4.3543 4.1018 6.684 6.2965-1.8218 1.6857-3.9163 3.8277-6.2174 5.7183-11.501 9.449-23.5929 18.0312-37.0465 24.5253-4.584 2.2126-9.2816 4.1898-13.927 6.275-.5175-.1724-1.0311-.4827-1.5533-.4977-14.0805-.4041-28.171-.5825-42.2395-1.234-7.7912-.3608-15.6265-1.0488-23.2986-2.402-11.4788-2.0245-22.9401-4.352-34.2072-7.3169-11.2702-2.9657-22.5786-6.1715-33.3452-10.5602-11.3133-4.6116-22.215-10.3706-32.9163-16.3131-15.5144-8.6153-28.6443-20.2505-40.2379-33.6777-9.5605-11.0725-17.7319-23.0455-23.8256-36.3409-2.9457-6.4271-5.5082-13.053-7.858-19.7248-3.897-11.0649-6.0964-22.556-7.5248-34.172-1.1019-8.9609-2.1648-17.948-2.6631-26.9556-.4451-8.0441-.1501-16.1329-.0647-24.2008.0329-3.1064.1348-6.2519.6441-9.3064 1.7468-10.4772 3.2689-21.0198 5.6793-31.3501 2.1753-9.3224 5.3359-18.4204 8.2055-27.5724.9764-3.1139 2.3898-6.0908 3.6035-9.1303 3.2671-4.383 6.4712-8.8159 9.8645-13.099.556-.7018 1.9543-1.0688 2.948-1.0411 13.8304.3852 27.4891-.8707 40.9695-4.0165 2.5634-.598 5.1403-1.1365 7.7108-1.7025z" fill="#61417b"></path><path d="m133.2787 186.9378c-1.2137 3.0395-2.6272 6.0164-3.6035 9.1303-2.8696 9.1519-6.0302 18.2499-8.2055 27.5724-2.4105 10.3303-3.9325 20.8729-5.6793 31.3501-.5093 3.0545-.6111 6.2-.6441 9.3064-.0855 8.0679-.3804 16.1567.0647 24.2008.4983 9.0076 1.5612 17.9946 2.6631 26.9556 1.4284 11.616 3.6278 23.1071 7.5248 34.172 2.3498 6.6718 4.9123 13.2977 7.858 19.7248 6.0937 13.2954 14.2651 25.2683 23.8256 36.3409 11.5936 13.4272 24.7235 25.0623 40.2379 33.6777 10.7013 5.9425 21.603 11.7015 32.9163 16.3131 10.7666 4.3887 22.075 7.5945 33.3452 10.5602 11.2671 2.9649 22.7283 5.2924 34.2072 7.3169 7.6721 1.3531 15.5074 2.0412 23.2986 2.402 14.0686.6515 28.159.8299 42.2395 1.234.5222.015 1.0358.3253 1.5533.4977-4.7958 1.9215-9.4606 4.3276-14.4139 5.6659-10.7327 2.8997-21.5211 5.7752-32.4561 7.6976-13.6118 2.3931-27.4416 2.9911-41.2395 1.5073-8.8019-.9466-17.6625-1.8416-26.3062-3.664-17.9407-3.7824-35.03-10.1077-51.2025-18.8367-14.1198-7.6211-27.0674-16.8296-39.0242-27.5568-15.0026-13.4598-27.3927-29.006-37.4288-46.3669-10.7589-18.6113-18.6319-38.4685-22.3589-59.7034-1.8201-10.3701-2.6228-20.9358-3.5417-31.443-1.4544-16.6294 1.3269-32.8548 4.9098-49.0339 4.6463-20.9812 13.1161-40.3296 24.1464-58.635 2.1799-3.6176 4.8629-6.9319 7.3138-10.386z" fill="#51326b"></path><path d="m481.4973 332.0507c-.5344-2.2393-1.2728-4.4516-1.5719-6.7219-3.0645-23.2614-8.9583-45.8011-17.9784-67.4292-8.3224-19.9553-18.6355-38.9491-31.4116-56.395-7.9007-10.7885-16.4961-21.1892-25.7466-30.8369-11.1774-11.6573-23.5343-22.1434-37.1547-30.9949-3.4861-2.2654-7.0036-4.4888-10.4062-6.8746-6.1195-4.2909-13.283-5.8378-20.2842-7.6822-11.3128-2.9803-22.6724-5.8165-34.097-8.3285-8.8292-1.9413-17.7965-3.2483-26.6815-4.9472-1.6232-.3104-3.1453-1.149-4.7143-1.7439 9.2219-6.4704 19.711-4.8948 29.879-4.3328 14.7717.8165 29.2737 3.4705 43.4877 7.7203 21.5085 6.4308 41.3058 16.2085 59.4996 29.369 14.9272 10.7976 28.0116 23.4803 39.2504 38.0091 8.8223 11.405 16.2805 23.6831 22.3973 36.802 9.6663 20.7312 15.4429 42.4745 17.7002 65.1778 1.6401 16.4937.7016 32.9004-2.1678 49.2089z" fill="#a778cc"></path><path d="m434.3329 386.1825c-.4351 3.4709 2.1662 4.1694 4.5912 5.0287-.2371.262-.7096.7147-.6754.757.4738.585 1.0304 1.1016 1.5416 1.658 3.8789 4.2218 7.7523 8.4488 11.6273 12.6741-2.2519 3.3845-4.4452 6.8101-6.7798 10.1365-1.2271 1.7484-2.7014 3.3234-4.0641 4.9767-4.2947.5487-8.5894 1.0973-12.8841 1.6459-.0659-.9232-.1317-1.8464-.1976-2.7697.1858-.6055.5684-1.2247.5268-1.814-.3775-5.3467-.3787-10.7764-1.402-16.0033-.8139-4.1573-2.67-8.1761-4.5141-12.0414-1.1022-2.3103-3.3911-2.0524-4.5214.2419-.4839.9824-.8812 2.1433-.8621 3.215.1026 5.7524.2725 11.5064.5853 17.2508.115 2.1125.6848 4.2002 1.0471 6.2992-.0345.3754-.0689.7507-.1026 1.126-.133.2191-.2667.4383-.4005.6576-.2028 4.759-4.0517 7.505-6.2828 11.1098-4.3959 7.1025-11.0339 11.5298-18.7806 14.3892-1.0313-.5471-2.0469-1.1265-3.0982-1.6319-.905-.4351-2.3502-.5355-2.6917-1.2172-1.4837-2.9608-2.6509-6.0803-3.9332-9.1421 5.8954-4.3433 11.7908-8.6866 17.6861-13.0297-.1339 1.189-.2678 2.3778-.4084 3.6283 3.7934-2.7938 11.7305-18.8438 11.4052-22.5316-1.0164 1.6237-2.1891 3.4972-3.3619 5.3707.1038-.9887.2076-1.9775.3114-2.9662.1516-.1853.3031-.3707.0416-.0508.099-.422.041-.1747-.0171.0728-.3783.3783-.7566.7566-1.1349 1.1349-.8109-1.7257-1.6216-3.4513-2.4324-5.1769.5743-1.9282 1.1487-3.8564 1.8779-6.3044-2.1459.5053-3.8723.9118-5.5995 1.3177-2.9725-.0901-5.981-.5154-8.9075-.1939-4.9269.5411-9.8017 1.5562-14.6971 2.3718 1.4438-7.2291 2.8862-14.458 4.3286-21.687 5.2438 1.5136 10.4727 3.0816 15.7372 4.5197 2.9932.8176 6.0444 1.4228 9.8174 2.2969-4.0173-5.4935-16.183-9.8165-25.0919-9.5349.1471-.5604.2941-1.1208.4412-1.6812.0195-.7844.0389-1.5688.0584-2.3531 4.8758 1.0822 9.7379 2.2325 14.6324 3.2218 3.0449.6154 6.139.987 9.2112 1.4673 1.2473 1.9059 2.5078 3.8039 3.7328 5.7246.3369.5281.7303 1.0982.8227 1.6918.8414 5.4002 4.0228 7.9401 9.7961 7.7449 1.1146.2052 2.2292.4104 3.3438.6157.0563.2169.1125.4336.0255.0985.1918.288.0702.1053-.0515-.0774.6762-.5917 1.2595-1.4367 2.0468-1.7258 2.0394-.7488 3.9207-1.5364 4.1011-4.0673.2406-3.3755.4285-6.7547.639-10.1323.7992-.912 1.5984-1.8239 2.6757-3.0533-6.3922-1.4095-10.9853 2.3607-16.6743 3.4518-.2768-1.6934-.542-3.3161-.8072-4.9388.4048.1765.8096.3528 1.2144.5294.0547.05.1094.0998.164.1497-.0652-.04-.1303-.08-.1955-.1199-1.4369-6.7141-5.8892-11.7348-9.6324-17.1538-.1616-.1699-.3233-.3397-.4849-.5095-.0701-.1508-.1215-.3078-.1544-.4708-1.834-3.1083-3.6222-6.2455-5.5447-9.2982-.3447-.5473-1.244-.7454-1.8873-1.1048 6.3639-6.4232 14.1792-9.6406 23.2017-10.6304 1.9152 10.3408 3.8042 20.5401 5.6931 30.7394 1.8696-8.633 2.6957-17.1649 1.3449-25.7664-.3329-2.1194-.5878-4.2509-.8785-6.3768.8711 4.0174 1.7422 8.0349 2.6131 12.0527.096.2036.1921.4068.2883.6099.0543 3.7889.1086 7.5777.1634 11.3668-.4912 2.9072-1.4754 5.8372-1.3409 8.7149.1443 3.0858 3.0174 4.9286 6.2961 4.2043 2.7648-.6108 5.0067-1.6825 6.856-3.4864 3.5699-3.4824 6.0309-7.549 5.1623-13.0072-2.1946 1.2908-4.1912 2.4651-6.1877 3.6395 4.4513-10.612 6.7016-21.8015 8.675-33.0635 4.3346 1.1906 8.6692 2.3811 13.3224 3.659-4.4047 11.9749-8.6619 23.5486-12.9191 35.1223.1972.0638.3944.1276.5916.1914.9642-.6718 1.9285-1.3436 2.8928-2.0154-.2735.8525-.547 1.705-.9318 2.9046 6.0644-2.9603 10.2378-7.5603 14.0144-12.6087.1958 1.3778.1874 2.8237.6229 4.1205 1.7104 5.0937 2.77 10.2598 2.3284 15.6624 0 0 .0165.2635.0161.2632-.818.213-1.6631.3539-2.4489.6514-5.012 1.8979-9.9638 3.967-15.0286 5.7091-4.2726 1.4696-8.7366 2.3873-12.998 3.8847-5.4111 1.9006-7.7195 2.8068-7.1057 9.6652zm-5.4904 10.5928c-.3287.1831-.6574.3662-.9861.5494.5724 1.5841 1.0008 3.24 1.7467 4.7378 1.6785 3.3702 3.4087 6.7257 5.3477 9.9488.6189 1.0288 1.9619 1.622 2.9736 2.4146.1474-1.2805.8505-2.8648.3454-3.7885-2.1108-3.8597-4.5419-7.5488-6.9532-11.2367-.6478-.9908-1.64-1.7564-2.4741-2.6254zm-14.4514-4.9334c.04-3.2642-4.2253-7.4873-6.7562-7.3525-2.0415.1087-2.0562 1.4101-1.18 2.7452 1.2302 1.8746 2.5297 3.7313 4.0289 5.388.588.6499 1.9208 1.1736 2.6846.9544.6896-.1981 1.0656-1.4881 1.2227-1.7351z" fill="#905714"></path><path d="m124.152 120.9903c3.6285-4.5618 7.257-9.1236 10.8853-13.6849.6367.1472 1.346.1604 1.8999.4606 10.0316 5.436 20.0441 10.9073 30.0615 16.3694 2.6415 1.4403 5.2861 2.8749 7.9293 4.3121.1896-.2997.3792-.5994.5688-.8991-1.4518-1.1022-2.7984-2.3919-4.3728-3.2757-9.0491-5.0794-18.1659-10.0382-27.2275-15.0957-2.28-1.2725-4.4419-2.7568-6.6581-4.1437 4.9557-4.5504 9.9113-9.1008 14.8666-13.651.3729.0149.7461.0295 1.1195.044.2356.4994.3576 1.1113.7237 1.4816 4.5757 4.6272 9.1598 9.2471 13.8118 13.7972.9296.9092 2.1532 1.518 3.229 2.257-5.001-5.316-9.9235-10.6013-14.9264-15.8094-.7418-.7722-1.8628-1.18-2.8083-1.7564-.0366-.2327-.0732-.4653-.1098-.698 1.1236-.9069 2.2473-1.8138 3.371-2.7207.2369-.1906.4737-.3813.7105-.572 0 0-.0316.0211-.0314.0211 4.7398-1.9014 9.4794-3.8027 14.2194-5.7039 1.966 3.0099 3.9037 6.0386 5.924 9.0114.3477.5116 1.0459.7849 1.5821 1.1684.2324-.2041.4648-.4083.6971-.6124-1.5351-2.2815-2.9457-4.6625-4.6557-6.8044-.9096-1.1393-2.3377-1.8646-3.5318-2.7767-.0005-.3847-.001-.7694-.0015-1.1541 1.1553.0398 2.3538.2996 3.4589.0832 6.6229-1.2974 13.2243-2.7044 19.8329-4.0747 5.6487 16.0496 7.4297 32.7656 8.3535 49.6656.4622-.3312.655-.6362.7534-.9692 2.9263-9.9033 1.6508-19.8193-.4601-29.581-1.4282-6.6047-3.847-12.9952-5.8226-19.4816 3.7522.1638 7.6494-.2641 11.2273.6119 8.011 1.9613 10.5676 2.497 11.745 11.3166.1364 1.0219.314 2.0394.5055 3.0527.561 2.9683-.7077 5.2251-2.7601 7.1849-.2356-2.8545-.4712-5.7089-.7069-8.5634-.1687.0105-.3373.021-.506.0315-.3901 5.2509-.7801 10.5019-1.2318 16.5824.9432-2.0997 1.543-3.4351 2.1429-4.7704-.1581 3.1182-.3162 6.2363-.4743 9.3545-.2245.0172-.449.0344-.6735.0516-.23-.6673-.4599-1.3345-.7262-2.1071-1.0771 5.396-2.0725 10.6433-3.1873 15.8651-.6251 2.9279-1.4478 5.8135-2.1815 8.7182-.0462.0698-.0924.1397-.1385.2096.0388-.0773.0777-.1545.1165-.2318 1.7389-2.6384 3.4778-5.2769 5.2166-7.9153-.6319 3.4084-1.2639 6.8168-1.8957 10.2249-.1669.3622-.3339.7247-.5009 1.0872-5.7539-.1857-11.5137-.2672-17.2596-.5932-3.94-.2235-7.8845-.6325-11.7854-1.2297-9.0069-1.3788-18.1119-2.4087-26.9496-4.5285-11.2403-2.6963-22.256-6.3295-33.3687-9.5587zm49.5719-10.2361c.0804.0449.1607.0897.2411.1346-.0821-.0431-.1643-.0862-.2464-.1293-.2482-.0734-.4964-.1469-.7447-.2203.25.0716.5.1433.75.215zm2.8263 18.3466c-.058.0388-.1465.0672-.1646.1198-.0145.0422.0564.1137.0893.1722.0883-.068.1766-.136.2648-.204-.0631-.0294-.1263-.0587-.1895-.088z" fill="#a7c84c"></path><path d="m275.5235 42.9878c1.3333-1.1406 2.6665-2.2812 3.9994-3.4215-.9415 2.8896-2.1722 5.7208-2.7655 8.6799-1.3662 6.8138-2.3214 13.7091-3.6375 20.534-1.0074 5.2243.036 10.1261 1.7772 14.9731.2862.7965.8444 1.4954 1.2769 2.2393.4839-1.2563.5879-2.3005.4677-3.3182-1.1051-9.3558-.8307-18.6786 1.0444-27.896 1.1441-5.6242 2.7539-11.1536 4.1546-16.7256 4.7463-2.2833 9.4926-4.5667 14.2391-6.8501.1981-.0495.3959-.099.5938-.1485 0 0 .1837.0267.1838.0266 2.3588.0006 4.7212.0864 7.0757-.0134 8.2452-.3495 16.3349.54 24.2453 2.9131 2.4493.7348 4.869 1.5679 7.8199 2.5236-.5282-1.3709-.7986-2.0726-1.069-2.7743 2.9944 1.4113 5.912 2.7145 7.1933 5.9126-1.1286-.3876-2.2572-.7752-3.3859-1.1625-.2073-.1375-.4135-.2768-.6272-.4035-.0052-.0031-.0936.1339-.1432.2055.2456.0789.4913.1578.7369.2367 1.6095 3.8845 4.6935 6.2773 8.5776 8.1175-.2167-1.155-.4334-2.3101-.6501-3.4651 3.0392 2.2593 6.0784 4.5186 9.1175 6.7778.0249.4791.0498.9582.0748 1.4373-15.4933 3.1516-29.5754 9.5463-42.5402 18.5096-.3664.23-.7324.4604-1.0984.6907 0 0-.0153.0486-.0164.0463-.5376.3747-1.0742.7517-1.6108 1.1287 0 0-.0653.0731-.0666.07-.5203.0572-1.1314-.0399-1.5443.2018-5.2071 3.0478-10.2963 6.3083-15.5923 9.1898-7.7836 4.2351-15.6303 8.3335-24.5746 9.8053-2.1122.3476-2.9639-.2737-3.7416-1.8754-2.6096-5.3748-2.8907-11.0742-1.0027-16.5277 2.4253-7.0057 5.6795-13.7209 8.4479-20.613 1.1812-2.9407 2.0369-6.0122 3.0405-9.0244zm21.5957 9.4098c-.466.2505-.8122.3164-.9258.5152-3.3799 5.9126-5.2408 12.1638-3.2381 18.9166.4376 1.4754 2.1989 2.5583 3.3505 3.8219.2686-.1971.5373-.3943.8059-.5914-2.8467-7.5-1.4449-14.9934.0075-22.6623zm18.9902 1.5961c.3421-.0962.6843-.1924 1.0265-.2885.0778-6.677-1.8703-12.8415-4.5379-18.8241-.2573.0625-.5146.1249-.7719.1874 1.4278 6.3084 2.8556 12.6168 4.2833 18.9252z" fill="#a7c84c"></path><path d="m52.4993 167.8606c2.7455-1.0118 5.4909-2.0235 8.2353-3.0352 3.3467.0163 6.6945.0325 10.042.0482-.0736.4653-.1113.9401-.2256 1.3957-3.0672 12.2314-5.8007 24.5092-4.922 37.2568.1239 1.7972.4844 3.578.7353 5.3665 1.1588-3.1016 1.6819-6.1861 2.0864-9.2861.9357-7.1698 1.7209-14.3605 2.7496-21.5164.6413-4.4612 1.6153-8.8746 2.4401-13.3095.1745-.1884.3491-.3769.5236-.5653l9.6393-1.1391c-.5543 6.3662-1.349 12.7226-1.6075 19.1008-.4053 9.9997-.5613 20.0138-.5843 30.0224-.0081 3.5488.5358 7.1222 1.0929 10.6425.5719 3.614 1.468 7.1766 2.2222 10.7617-1.8045.9775-3.6126 1.9483-5.4129 2.9335-6.9044 3.7786-13.7876 7.597-20.7363 11.2922-.7403.3937-1.8583.077-2.8015.0894-.4231-1.8956-.8459-3.7906-1.2687-5.6857-.3435-3.3643-.8928-6.7225-.9917-10.094-.2965-10.1039-.4278-20.2127-.5997-30.3201-.0515-3.0284-.0077-6.0583-.0476-9.087-.0088-.6647-.1882-1.3271-.2891-1.9905-.295.0059-.59.0118-.885.0176-.5301 6.5828-1.441 13.1628-1.4912 19.7492-.0588 7.7144.6316 15.4345.997 23.1521-.9496-4.8422-2.4782-9.6567-2.7118-14.5332-.3416-7.1312.1958-14.3088.4594-21.4628.121-3.2816.421-6.5605.7472-9.83.6514-6.5294 1.3769-13.0514 2.0717-19.5764 0 0 .0426-.0287.0423-.0286.1635-.123.3271-.2458.4906-.3687z" fill="#a7c84c"></path><path d="m124.152 120.9903c11.1126 3.2292 22.1284 6.8624 33.3689 9.5585 8.8377 2.1198 17.9427 3.1497 26.9496 4.5285 3.901.5972 7.8454 1.0062 11.7854 1.2297 5.7459.326 11.5057.4075 17.2599.5934.0126 1.144.025 2.2878.0373 3.4315-.0165.5746-.0329 1.1493-.0494 1.7239-.3605 2.0883-.721 4.1766-1.0815 6.2649-16.011 6.7934-32.5646 11.4342-49.9935 12.6024-.7691.1021-1.5383.2047-2.3074.3073-1.1555.0305-2.3109.0611-3.4663.0919-.2805-.3348-.5141-.8993-.8492-.9679-2.3031-.4712-4.6471-.7491-6.9414-1.2553-8.509-1.8777-16.9281-4.1289-24.4162-8.75-3.6732-2.2668-6.9807-5.1261-10.4538-7.7172 1.023-6.7421 4.3942-12.4957 7.7317-18.254.6934-1.1962 1.6115-2.2618 2.4259-3.3876zm42.6473 26.0256c-13.868-3.8546-28.2681-6.0324-41.1053-13.1344 12.3599 8.6055 25.9793 13.2433 41.1053 13.1344zm4.6469 4.3663c5.5551 5.5309 20.8816 4.9239 24.463-1.2104-8.187.4051-16.3984.8114-24.463 1.2104zm-48.2649-19.4255c-.082.0237-.1758.0319-.2395.0799-.0213.0161.0341.1339.0544.2053.082-.0238.1758-.0318.2392-.08.0216-.0163-.0338-.1339-.0541-.2052z" fill="#8bb52b"></path><path d="m51.9667 168.2577c-.6949 6.5251-1.4203 13.047-2.0717 19.5764-.3262 3.2694-.6262 6.5483-.7472 9.83-.2637 7.1541-.801 14.3316-.4594 21.4628.2336 4.8765 1.7621 9.691 2.7117 14.5331.1885 1.5193.3772 3.0386.5658 4.558.2122 1.4697.1763 3.0348.6958 4.3864.7478 1.9456.3627 4.7158 3.3149 5.3144.9428-.0128 2.0609.3038 2.8012-.0899 6.9487-3.6952 13.8319-7.5136 20.7363-11.2922 1.8002-.9853 3.6084-1.9561 5.4133-2.9329.0419.2774.0833.5543.1248.8312-8.9176 9.0549-17.8351 18.1099-26.7528 27.1646-7.9212 1.7451-15.9635 1.7597-24.0124 1.6798-3.6666-8.6004-5.5738-17.6579-6.7504-26.8701-.7068-5.5339-1.4208-11.112-1.4676-16.6758-.1058-12.566.811-25.0125 7.4272-36.2327.5179-.8783 1.2712-1.6179 1.9152-2.4208-.3619 7.7088-1.2537 15.4392-.9232 23.117.28 6.5023 1.8983 12.9578 3.0857 19.4042.3849 2.0898 1.2804 4.0855 1.9424 6.1243.1574-2.4556.038-4.787-.1304-7.1149-.7322-10.1217-1.6322-20.2345-2.1509-30.367-.2349-4.5893.2768-9.2168.4498-13.827 3.8968-4.6004 8.9046-7.6394 14.2819-10.1589zm-13.0956 87.5924c.0835.0415.167.0831.2505.1247-.0805-.0445-.161-.0891-.2415-.1336-.2137-.8071-.3387-1.6509-.6555-2.4153-1.9223-4.6383-3.8884-9.2584-6.0966-14.4935.6026 3.6288.6402 6.9261 1.7754 9.788 1.0397 2.621 3.2649 4.7718 4.9677 7.1297z" fill="#8bb42b"></path><path d="m111.9349 163.0674c.5287.3421 1.0574.6842 1.5856 1.0264-1.1275 4.6676-.9595 9.3026.4074 13.9639.9715-3.0624 1.3123-6.1735 1.7924-9.263.152-.9784.6759-1.899 1.0296-2.846 4.3305 1.5693 8.661 3.1386 13.1835 4.7775-2.698 3.6908-5.3964 7.316-8.0254 10.9909-7.9555 11.1206-14.3918 23.0872-19.9459 35.5649-.8854 1.9891-2.3363 3.86-3.9166 5.3788-3.4072 3.2749-7.0686 6.2854-10.6263 9.4037-.6242-.6221-1.7543-1.2124-1.795-1.8701-.501-8.0946-1.2005-16.2015-1.1471-24.3005.0952-14.4502.67-28.8972 1.0443-43.3455 5.4862-.2141 10.9724-.4283 16.4585-.6424-1.42 12.3356-4.266 24.6175-1.8683 37.0969.3559.0238.7118.0475 1.0677.0713.894-12.2156 1.7881-24.4313 2.6821-36.6469 2.6913.2134 5.3824.4268 8.0735.6401z" fill="#a6c74c"></path><path d="m187.6114 63.2822c-12.407 4.0387-23.3534 10.6-33.2411 19.0564-1.246 1.0656-2.9984 1.5391-4.5161 2.2868-4.0768-3.0334-8.1951-6.0134-12.2095-9.1272-1.5384-1.1933-3.4187-2.4458-4.1249-4.1049-1.3535-3.1793-2.3974-6.6181-2.8111-10.0409-.6756-5.59-.6847-11.1962 4.4082-15.2801 3.4712-2.7835 4.0158-6.872 4.4699-10.9456 6.3087 1.6785 11.1389-.4778 14.7866-5.7014-.4864 4.8942.778 9.3347 3.4518 13.4193.2506.3828.3886.842.5603 1.2732 1.9077 4.791 3.5193 9.731 5.8325 14.3172 1.2768 2.5314 2.6429 5.5613 6.0903 6.2348.0316.0655.052.1413.0992.1925.0284.0309.0984.0234.1498.0332-.0834-.0749-.1667-.1498-.2501-.2247-.7406-1.5816-1.3436-3.2472-2.2478-4.729-2.6503-4.3429-5.4204-8.6127-8.4965-13.4682 5.2175 3.1278 9.681 5.8036 14.1447 8.4799 1.5167.7599 3.0333 1.5193 4.5499 2.2787 3.1178 2.0167 6.2358 4.0333 9.3539 6.05zm-47.4628-19.0905c-.0251-.0689-.0375-.1476-.08-.2032-.0258-.0337-.0983-.0315-.1499-.0454.0793.0802.1585.1605.2378.2407 2.7151 5.466 5.2693 11.0279 9.3608 15.6739-1.6642-6.0919-4.4198-11.5329-9.3687-15.666zm15.3157 31.276c-12.3049-6.6748-17.7207-17.0559-17.3971-30.7479-3.4338 8.8995-.993 16.7741 3.9542 24.1827 3.1016 4.6448 7.268 7.422 13.4429 6.5652zm-4.8944-28.981c-.2775.2121-.5549.4242-.8324.6363 3.7693 5.0541 7.5386 10.1082 11.3079 15.1623.2528-.1898.5056-.3796.7583-.5694-1.6216-6.6457-5.9503-11.2903-11.2338-15.2292z" fill="#8ebe5c"></path><path d="m364.3213 59.0138c5.6207.0674 11.2413.1348 16.9523.2032-1.3333 8.6918-7.98 14.6034-14.8717 16.8741-6.9676 2.2957-14.0118 4.7279-20.4368 8.1879-5.4047 2.9105-10.0535 7.2793-14.8549 11.224-1.5466 1.2706-2.758 2.0046-4.8991 1.7026-7.3782-1.0407-14.798-1.7857-22.2023-2.6428.3476-.5426.629-1.1449 1.0528-1.6203 11.4259-12.8189 25.7463-21.3516 41.4765-27.6873 5.8213-2.3446 11.8494-4.176 17.7832-6.2414z" fill="#73a212"></path><path d="m194.7203 76.5632c-6.6086 1.3703-13.21 2.7773-19.8329 4.0747-1.1051.2165-2.3036-.0434-3.4587-.0826-.4035-.6237-.8073-1.2478-1.2111-1.872 15.4986-8.1226 31.9251-11.5572 49.3552-9.4857 5.0838.6042 10.0266 1.9443 14.0001 5.5381-.0306 3.6498-.3251 7.3237.0033 10.9411.2117 2.3327 1.3371 4.5824 2.0531 6.8693-.8911 2.2689-1.7442 4.554-2.697 6.7967-.2791.6569-.7122 1.4666-1.2944 1.7423-5.2447 2.483-7.7245 7.2336-10.045 12.0971-1.9583 4.1044-3.792 8.2683-5.6808 12.4059-1.7388 2.6385-3.4777 5.2769-5.2166 7.9153l.0221.0222c.7337-2.9047 1.5564-5.7903 2.1814-8.7182 1.1148-5.2218 2.1102-10.4692 3.1873-15.8651.2663.7726.4962 1.4398.7262 2.1071.2245-.0172.449-.0344.6735-.0516.1581-3.1182.3162-6.2363.4754-9.3548.1009-1.0934.2008-2.1866.3007-3.2798 2.0524-1.9598 3.3211-4.2166 2.7601-7.1849-.1915-1.0133-.3691-2.0308-.5055-3.0527-1.1774-8.8196-3.734-9.3553-11.745-11.3166-3.5779-.876-7.475-.4481-11.2268-.613-.3468-.0578-.694-.1144-1.0412-.1711-.3428-.4899-.6857-.9798-1.0285-1.4697-.1996.5189-.3992 1.0378-.5988 1.5567-.054.1498-.1061.3002-.1561.4513z" fill="#d9e58f"></path><path d="m139.5867 35.1267c-.454 4.0736-.9987 8.1621-4.4699 10.9456-5.0929 4.0839-5.0838 9.6901-4.4082 15.2801.4137 3.4228 1.4576 6.8616 2.8111 10.0409.7063 1.659 2.5865 2.9116 4.1249 4.1049 4.0145 3.1138 8.1328 6.0937 12.2095 9.1272-5.2093 3.5606-10.4185 7.1212-15.8689 10.8466-2.2025-1.2733-4.8232-2.7106-7.3616-4.2809-1.9701-1.2187-2.9657-3.1082-2.1587-5.3451 2.6243-7.2741-1.1226-11.8909-6.5528-15.0775-1.9449-1.1413-2.8831-2.5689-3.2874-4.592-.3143-1.5728-.5909-3.1534-.9229-4.7223-.6138-2.9006.32-5.2376 2.6287-7 2.0257-1.5463 4.123-3.0002 6.2082-4.4672 3.8178-2.686 5.2172-6.2911 4.2825-10.8639-.5919-2.896.0753-4.3247 2.9877-4.552 3.2253-.2516 6.5158.3344 9.7778.5556z" fill="#77a93e"></path><path d="m275.5235 42.9878c-1.0036 3.0121-1.8593 6.0836-3.0405 9.0244-2.7684 6.8921-6.0226 13.6073-8.4479 20.613-1.888 5.4536-1.6069 11.153 1.0027 16.5277.7777 1.6018 1.6294 2.223 3.7416 1.8754 8.9442-1.4718 16.791-5.5702 24.5746-9.8053 5.296-2.8816 10.3852-6.142 15.5923-9.1898.4129-.2416 1.024-.1446 1.5443-.2018-4.4814 3.5933-8.9616 7.1864-13.4472 10.7729-7.2259 5.7777-14.3747 11.6567-21.731 17.2635-2.2827 1.7399-5.1322 2.7363-7.722 4.073-1.4591-.7616-2.8915-2.1106-4.3827-2.179-5.3677-.2464-10.7552-.0608-16.1352-.0385-.6626-.2997-1.3253-.5993-1.2127-.5484 1.0459-6.3464 2.0094-12.2723 3.0177-18.1905.1037-.6087.3168-1.3491.7448-1.73 8.0888-7.1985 12.2921-16.8648 17.1335-26.2077 2.2606-4.3625 5.8051-8.0599 8.7677-12.0589z" fill="#8ab32d"></path><path d="m355.748 49.9489c-3.0392-2.2593-6.0784-4.5186-9.1171-6.7789-.9426-.7908-1.8856-1.5805-2.8286-2.3703-.3616-.2036-.7232-.4072-1.0847-.6108-.1984-.1822-.3967-.3644-.5951-.5466-1.2813-3.1982-4.1989-4.5013-7.1933-5.9126.2704.7017.5408 1.4034 1.069 2.7743-2.9508-.9557-5.3706-1.7888-7.8199-2.5236-7.9103-2.3731-16.0001-3.2626-24.2453-2.9131-2.3545.0998-4.7168.0141-7.0757.0134 21.7969-8.6399 43.6328-8.0004 61.9991 9.1291 2.6195 2.4431 5.1622 4.9686 7.7402 7.4557-.9485.3527-1.8701.85-2.8501 1.0308-2.6529.4895-5.3306.8444-7.9985 1.2526z" fill="#d8e48e"></path><path d="m119.705 46.7095c-1.4427 1.2101-2.807 2.5319-4.3426 3.6097-4.8586 3.4102-5.6143 7.9524-3.8858 13.2622.3121.9586.5671 1.9357.6363 2.9587-6.4027-7.2188-8.6519-15.6304-5.8529-24.8072 3.1951-10.4754 10.5053-17.6953 20.1438-22.6466.037.2036.0737.4073.1105.611-1.1602 3.8365-2.1064 7.7547-3.533 11.4894-1.9208 5.0287-3.6424 10.0383-3.2763 15.5228z" fill="#a96f4c"></path><g fill="#7d4407"><path d="m443.3018 352.0356c1.9966-1.1743 3.9931-2.3487 6.1877-3.6395.8686 5.4581-1.5924 9.5248-5.1623 13.0072-1.8493 1.8039-4.0912 2.8755-6.856 3.4864-3.2787.7244-6.1518-1.1184-6.2961-4.2043-.1345-2.8777.8497-5.8077 1.3409-8.7149.3326 2.3012.6658 4.6025 1.0475 7.2393 2.1712-4.0669 4.4445-7.8925 4.1521-12.4739-.6242-9.7824 2.6765-18.8104 5.2116-27.9756.3342-1.2083 1.8233-2.0972 2.7774-3.1342 1.3391.9454 2.6784 1.891 4.0176 2.8366-.9967 11.1766-4.0961 21.8003-8.5568 32.0437-1.5018 3.4489-3.3456 6.7483-4.8657 10.1899-.3708.8394-.0812 1.9704-.0953 2.9674.7823-.6638 1.8413-1.1774 2.2975-2.0181 1.7068-3.1454 3.2164-6.3978 4.7999-9.61z"></path><path d="m416.6106 367.9534c.2652 1.6227.5304 3.2454.8072 4.9388 5.689-1.0911 10.282-4.8613 16.6743-3.4518-1.0773 1.2294-1.8765 2.1413-2.6754 3.0532-2.4049-1.5796-3.7426.9227-5.6009 1.4422-1.4509.4057-3.1721 1.2412-4.3803.8029-2.006-.7277-3.2929-.3475-4.4565 1.1389-.8588 1.0971-1.5731 2.3073-2.3541 3.4655-1.5469 2.2942-1.1141 3.9275 1.3495 5.3115 1.7975 1.0099 3.5594 2.0828 5.3373 3.1276-5.7733.1952-8.9547-2.3448-9.7961-7.7449-.0925-.5936-.4859-1.1637-.8227-1.6918-1.2251-1.9207-2.4855-3.8187-3.7328-5.7246 4.1005-.9881 4.5714-1.5605 2.3469-5.0114-2.7935-4.3336-6.1382-8.3096-9.196-12.4759-1.9465-2.652-3.7295-5.4264-5.73-8.0355-1.1962-1.5602-.7807-2.734.4057-3.9225 1.0545-1.0563 2.1324-2.0891 3.1999-3.1321.7011-.0226 1.4023-.0454 2.1034-.0682.6433.3594 1.5426.5575 1.8873 1.1048 1.9225 3.0527 3.7106 6.1899 5.5451 9.2975-.5465-.4742-1.0992-.941-1.6393-1.422-2.0765-1.8496-4.1489-3.7038-6.2234-5.5556-.2754-.6205-.5502-1.2418-.825-1.863-.3132.3596-.6263.7191-.9395 1.0788.5369.3206 1.0737.6411 1.6105.9617.1532.5336.1731 1.1638.4795 1.5862 5.5211 7.6115 11.0769 15.1979 16.6254 22.7897z"></path><path d="m377.8242 396.3716c4.8967-.8157 9.7715-1.8308 14.6985-2.3719 2.9265-.3214 5.935.1038 8.9075.1939-5.624 1.9128-11.2959 3.6992-16.8599 5.7747-4.9591 1.8499-9.7947 4.0295-14.696 6.0364-.6803.2786-1.4244.4012-2.8407.7872.3172-2.8239.3182-5.3301.9128-7.6864 2.3785-9.4264 4.8675-18.8268 7.4686-28.1943 1.2072-4.3478 1.3678-4.3127 5.809-3.528.6429.1136 1.2619.3622 1.8921.5484-.0193.7844-.0388 1.5688-.0579 2.3526-.8479.7593-2.1454 1.3714-2.4538 2.3089-.712 2.1644-.8889 4.4987-1.3815 6.7424-1.4302 6.5138-3.7487 12.9033-2.731 20.084.5316-1.2163.9319-2.1321 1.3323-3.0479z"></path><path d="m418.3519 417.4377c-.3623-2.099-.9321-4.1867-1.0471-6.2992-.3128-5.7444-.4827-11.4984-.5853-17.2508-.0191-1.0717.3781-2.2326.8621-3.215 1.1303-2.2942 3.4192-2.5522 4.5214-.2419 1.8441 3.8653 3.7003 7.8841 4.5141 12.0414 1.0233 5.2269 1.0244 10.6566 1.402 16.0033.0416.5893-.341 1.2086-.5268 1.814-1.325-5.6536-2.644-11.3087-3.9815-16.9594-.193-.8155-.475-1.6098-.9991-2.3589.3384 2.7965.7093 5.5895 1.0085 8.3903.5898 5.5208 1.1043 11.0498 1.7367 16.5655.1263 1.1023.4767 2.2494 1.0074 3.2209 1.2448 2.2791.4436 3.3536-1.8006 4.237-2.1354.8406-3.2834.6667-3.9273-1.7717-.6335-2.3986-1.7857-4.6588-2.446-7.0526-.2118-.7678.403-1.772.6651-2.6605.8116-2.7521 1.6353-5.5006 2.4544-8.2505-.3284-.1162-.6567-.2324-.985-.3486-.6244 1.379-1.2487 2.7579-1.873 4.1367z"></path></g><path d="m400.0899 339.9753c-.7012.0228-1.4023.0456-2.1034.0682 5.9767-6.3511 12.7519-11.6998 20.2954-16.0647 1.952-1.1295 3.9622-2.1777 6.0182-3.1021 1.5242-.6853 2.7903-.2284 3.3586 1.4762.6188 1.8557 1.1953 3.7256 1.7914 5.5887.2918 2.1254.5468 4.257.8796 6.3763 1.3508 8.6015.5246 17.1334-1.3449 25.7664-1.889-10.1993-3.778-20.3986-5.6931-30.7394-9.0227.9898-16.838 4.2072-23.2018 10.6304z" fill="#cd7e22"></path><path d="m405.1519 399.1804c.8107 1.7256 1.6215 3.4512 2.4323 5.1769-2.4616 3.9924-4.9234 7.9846-7.3854 11.9767-.1916.0031-.383.0065-.5743.0099 0 0 .0242-.0148.0242-.0147-4.4694 3.2111-9.0077 6.3322-13.3725 9.6794-1.6383 1.2564-2.8734 3.0385-4.2923 4.581-2.8173 2.4563-5.6346 4.9127-8.4442 7.3623-2.6118-2.7714-2.7511-5.2775-.126-7.6198 5.3418-4.7664 10.7641-9.4505 16.2989-13.991 5.3755-4.4099 9.8848-9.5477 13.8099-15.2463.4729-.6865 1.0829-1.2785 1.6294-1.9144z" fill="#7d4407"></path><path d="m455.8644 355.9293c-.9642.6718-1.9285 1.3436-2.8928 2.0154-.1972-.0638-.3943-.1276-.5916-.1914 4.2572-11.5737 8.5144-23.1475 12.9191-35.1223-4.6532-1.2779-8.9878-2.4684-13.3224-3.659.0001-1.2026.0001-2.405.0001-3.7839 5.9631-.346 11.4643.7052 16.6334 3.1433.8288.3909 1.432 2.1688 1.416 3.2952-.1104 7.742-2.8408 14.7556-6.525 21.4158-2.416 4.3674-5.0826 8.5961-7.6368 12.8869z" fill="#cd7e22"></path><path d="m364.3213 59.0138c-5.9338 2.0655-11.9619 3.8968-17.7832 6.2415-15.7302 6.3357-30.0506 14.8684-41.4765 27.6873-.4237.4754-.7052 1.0777-1.0528 1.6203-2.6351-.1177-5.2704-.2348-8.5508-.3806 2.4493-2.0916 4.4684-3.9491 6.623-5.6333 10.5911-8.2788 21.2475-16.492 33.6082-22.0472 9.1046-4.0918 18.5316-7.1221 28.6321-7.488z" fill="#89b02e"></path><path d="m173.7073 54.9531c-4.4635-2.6758-8.927-5.3516-14.1445-8.4794 3.0761 4.8554 5.8462 9.1252 8.4965 13.4682.9042 1.4818 1.5072 3.1474 2.2478 4.729l.0011-.001c-3.4475-.6734-4.8135-3.7034-6.0903-6.2348-2.3132-4.5862-3.9248-9.5262-5.8325-14.3172-.1717-.4311-.3097-.8904-.5603-1.2732-2.6738-4.0847-3.9382-8.5252-3.4518-13.4193 2.6847-1.0991 5.3695-2.1984 7.6278-3.123.9671 4.4474 1.811 8.3287 2.6549 12.2098-.808-.3203-1.6158-.6403-3.2442-1.2854 1.5601 2.3034 2.6342 3.9282 3.7477 5.5255 2.8398 4.0734 5.6973 8.1346 8.5478 12.2008z" fill="#cce09a"></path><path d="m434.3329 386.1825c-.6139-6.8584 1.6946-7.7646 7.106-9.666 4.2614-1.4974 8.7253-2.4151 12.998-3.8847 5.0647-1.7421 10.0166-3.8113 15.0286-5.7091.7858-.2975 1.6309-.4384 2.4489-.6514-.6491 3.3859-1.6552 6.094-5.5942 7.4397-6.0132 2.0543-11.6648 5.1458-17.6191 7.4035-2.6682 1.0117-5.7949.7707-8.5315 1.6591-2.0938.6796-3.9016 2.2401-5.8367 3.4089z" fill="#7d4407"></path><path d="m119.705 46.7095c-.3661-5.4845 1.3554-10.4941 3.2764-15.5228 1.4266-3.7347 2.3728-7.6529 3.5329-11.4892 2.8778.8705 5.7526 1.7514 8.6344 2.6087 4.9479 1.4721 9.9002 2.9294 14.8506 4.393-2.5731 4.2245-3.6969 4.6081-8.5708 4.003-3.9893-.4953-8.0972-1.1885-12.0283-.7296-5.9463.6941-8.0017 4.0695-6.9929 9.9304.4933 2.8658-.0099 5.2481-2.7023 6.8065z" fill="#bf8f6e"></path><path d="m34.2869 263.2795c8.0489.0799 16.0911.0652 24.0124-1.6798-5.3241 5.6954-10.6482 11.3905-16.7156 17.8807-2.6449-5.8724-4.9708-11.0366-7.2968-16.2009z" fill="#73a212"></path><path d="m149.9993 26.6992c-4.9505-1.4635-9.9027-2.9209-14.8506-4.393-2.8818-.8574-5.7566-1.7383-8.6344-2.6087-.0366-.2039-.0734-.4076-.1104-.6112 3.65-2.1781 7.3392-2.6188 11.2658-.5957 3.795 1.9553 7.8368 1.6537 11.9062.9587 3.1534-.5386 6.3279-1.1312 9.5119-1.2716 4.9951-.2202 5.5494.663 4.247 5.9165-5.2222-3.135-9.4737-1.1864-13.3355 2.605z" fill="#dfcbb5"></path><path d="m85.5215 162.5484c-.3743 14.4483-.949 28.8954-1.0443 43.3455-.0534 8.0991.6461 16.2059 1.1471 24.3005.0407.6577 1.1708 1.2481 1.795 1.8701-.789.7899-1.5784 1.5795-2.3675 2.3698-.0412-.2761-.0827-.553-.1246-.8304-.7546-3.5857-1.6507-7.1483-2.2226-10.7623-.5571-3.5202-1.1011-7.0937-1.0929-10.6425.0229-10.0086.179-20.0227.5843-30.0224.2585-6.3782 1.0532-12.7346 1.6077-19.1005.5727-.1757 1.1452-.3518 1.7178-.5278z" fill="#88b227"></path><path d="m383.0623 432.729c1.2822 3.0618 2.4495 6.1813 3.9332 9.1421.3416.6817 1.7867.7822 2.6917 1.2172 1.0513.5054 2.0669 1.0848 3.0982 1.6319-2.9103 1.317-5.7531 2.8264-8.7553 3.8827-1.9459.6846-3.7877.0798-5.3034-1.6924-5.5478-6.4869-5.5341-7.1558 1.2283-12.1907.9842-.7327 2.069-1.3305 3.1073-1.9908z" fill="#7d4407"></path><path d="m212.4223 148.3207c.3605-2.0883.721-4.1766 1.0816-6.2648.21-.576.4199-1.1521.6298-1.7282l-.0301.0366c1.1387-2.6408 2.3907-5.2394 3.3921-7.9312 1.9726-5.3021 3.8061-10.6559 5.6972-15.9884.1941-.3913.3882-.7825.5822-1.1738 0 0-.0216.022-.0215.022.5477-.0016 1.0954-.0033 1.643-.005-1.4246 5.564-3.3204 11.0605-4.1301 16.7126-.6937 4.8425-.1436 9.8632-.1436 14.7187-2.8089.5171-5.7548 1.0593-8.7006 1.6015z" fill="#89b02e"></path><path d="m37.6846 178.4168c-.173 4.6102-.6847 9.2377-.4498 13.827.5187 10.1324 1.4187 20.2453 2.1509 30.367.1684 2.3279.2878 4.6594.1304 7.1149-.6619-2.0388-1.5574-4.0345-1.9424-6.1243-1.1874-6.4465-2.8057-12.9019-3.0857-19.4042-.3306-7.6778.5613-15.4082.9232-23.117.7578-.8887 1.5156-1.776 2.2734-2.6634z" fill="#70a00f"></path><path d="m85.5215 162.5484c-.5725.176-1.1451.3521-1.7178.5279-3.2133.3795-6.4264.7592-9.6397 1.1391.1919-1.1156.384-2.2315.576-3.3473 8.5311-2.4848 17.2595-2.6555 26.0172-2.0019 1.3962.1042 2.6575.5588 4.194.267 3.2488-.617 5.0562 1.8875 6.9832 3.9342-2.6906-.2133-5.3818-.4267-8.0739-.6394-.6275-.1736-1.254-.3478-1.8805-.522-5.4862.2141-10.9724.4282-16.4585.6424z" fill="#d8e48e"></path><path d="m281.8407 38.0529c-1.4007 5.572-3.0105 11.1014-4.1546 16.7256-1.8751 9.2174-2.1494 18.5402-1.0444 27.896.1202 1.0177.0162 2.062-.4677 3.3182-.4325-.744-.9907-1.4428-1.2769-2.2393-1.7412-4.847-2.7847-9.7488-1.7772-14.9731 1.3161-6.8248 2.2713-13.7202 3.6375-20.534.5933-2.959 1.824-5.7903 2.7655-8.6799.7728-.5048 1.5453-1.0091 2.3178-1.5135z" fill="#88b227"></path><path d="m450.2387 391.2635c-2.2673-1.4682-4.5347-2.9364-6.1985-4.0139 6.9571-2.1128 14.4573-4.3904 22.4129-6.8064-1.7995 3.2287-3.5977 6.455-5.3958 9.6813-3.6063.3797-7.2125.7594-10.8186 1.139z" fill="#73538e"></path><path d="m113.9946 142.6318c3.473 2.5911 6.7806 5.4504 10.4538 7.7172 7.4881 4.6212 15.9072 6.8723 24.4162 8.75 2.2942.5063 4.6383.7842 6.9414 1.2553.3351.0686.5688.6331.8492.9679-4.1839-.0028-8.3676-.0053-12.5513-.0076-4.1478-1.4617-8.3353-2.8214-12.4347-4.4084-7.0235-2.7191-13.1414-6.8073-18.1114-12.5252.1456-.583.2912-1.1661.4368-1.7492z" fill="#70a00f"></path><path d="m113.5577 144.3811c4.9701 5.7179 11.088 9.8061 18.1114 12.5252 4.0994 1.587 8.2869 2.9467 12.4347 4.4084-8.2323-.3109-16.2921-1.4965-23.7395-5.2515-5.6245-2.8359-7.4499-6.1556-6.8066-11.6821z" fill="#89b02e"></path><path d="m137.2385 105.0332c2.2162 1.387 4.378 2.8712 6.6581 4.1437 9.0616 5.0575 18.1784 10.0162 27.2275 15.0957 1.5744.8838 2.921 2.1735 4.3728 3.2757-.1896.2997-.3792.5994-.5688.8991-2.6432-1.4372-5.2878-2.8718-7.9293-4.3121-10.0175-5.4621-20.0299-10.9333-30.0615-16.3694-.5539-.3001-1.2632-.3134-1.8999-.4606.7338-.7576 1.4675-1.5148 2.2011-2.2721z" fill="#88b227"></path><path d="m71.3444 255.3727c7.93-7.6503 15.8601-15.3006 23.7901-22.9508.2823.1803.5645.3605.8468.5407-.5581 1.376-.7509 3.1401-1.7335 4.065-6.3917 6.0162-12.9549 11.8502-19.4619 17.7434-1.1472.2004-2.2944.4011-3.4415.6017z" fill="#89b02e"></path><path d="m451.4178 406.3002c-3.8751-4.2253-7.7484-8.4523-11.6273-12.6741-.5112-.5564-1.0678-1.073-1.5416-1.658-.0342-.0423.4383-.495.6754-.757 7.2369.2794 11.1424 5.4283 14.8166 10.5884.4482.6297-1.4906 2.9591-2.3231 4.5007z" fill="#cd7e22"></path><path d="m427.6898 423.0594c4.2947-.5486 8.5894-1.0972 12.8841-1.6459-2.2887 2.7615-4.3699 5.741-6.9498 8.1968-1.3857 1.3191-3.6276 1.7386-5.9343 2.7649 0-3.7627 0-6.5393 0-9.3158z" fill="#7d4407"></path><path d="m187.6114 63.2822c-3.118-2.0166-6.2361-4.0333-9.3539-6.0495-1.4429-2.5275-2.9146-5.0397-4.3133-7.5919-.4747-.8661-.7655-1.8329-1.1403-2.7537 5.3698 3.285 10.9063 6.3426 13.7368 12.4857.5916 1.2839 1.9268 2.2251 2.9972 3.4103-.6766.1753-1.3016.3372-1.9265.4991z" fill="#cce09a"></path><path d="m471.8983 366.008c.4416-5.4025-.618-10.5687-2.3284-15.6624-.4355-1.2968-.4271-2.7427-.6229-4.1205.4624-.0758 1.1613-.3835 1.351-.1905 1.8444 1.8762 3.6385 3.806 5.3608 5.795.3966.458.7933 1.3114.6311 1.7957-1.3909 4.1521-2.9104 8.261-4.3916 12.3827z" fill="#cd7e22"></path><path d="m247.0724 101.7235c5.38-.0224 10.7675-.2079 16.1352.0385 1.4911.0685 2.9235 1.4175 4.3827 2.179-7.2583 3.1366-13.9608 1.1323-20.5179-2.2175z" fill="#73a212"></path><path d="m172.8038 46.8871c.3748.9208.6656 1.8876 1.1403 2.7537 1.3988 2.5522 2.8704 5.0644 4.3133 7.5919-1.5168-.7598-3.0334-1.5192-4.5501-2.2791-2.8506-4.0666-5.7081-8.1279-8.548-12.2014-1.1136-1.5973-2.1876-3.2222-3.7477-5.5255 1.6284.6451 2.4363.9651 3.2442 1.2854 2.2712 2.3942 4.5423 4.7882 6.8135 7.1825.2159.2459.4315.4914.6472.7369 0 0-.0461-.1133-.0458-.1125.224.2035.4477.4061.6715.6087z" fill="#c7d558"></path><path d="m71.3444 255.3727c1.1472-.2007 2.2943-.4013 3.4415-.6016-5.845 5.2342-11.6708 10.4897-17.5424 15.6935-3.3134 2.9365-6.7022 5.7878-10.057 8.6776-.1922-.2069-.3844-.4138-.5767-.6207 8.2448-7.7162 16.4897-15.4325 24.7346-23.1488z" fill="#70a00f"></path><path d="m235.6293 92.5461c-.7159-2.2869-1.8413-4.5366-2.0531-6.8693-.3283-3.6174-.0339-7.2913-.0033-10.9411 3.6928 3.3098 4.2322 7.6131 3.6216 12.1572-.2579 1.9199-1.0279 3.7709-1.5652 5.6532z" fill="#c7d558"></path><path d="m450.2387 391.2635c3.6062-.3796 7.2123-.7593 10.8185-1.1389-1.3159 2.6674-2.632 5.3348-4.104 8.3187-2.4925-2.6652-4.6035-4.9225-6.7145-7.1798z" fill="#61417b"></path><path d="m408.3832 406.1667c1.1728-1.8735 2.3455-3.747 3.3619-5.3707.3253 3.6878-7.6118 19.7379-11.4052 22.5316.1407-1.2504.2745-2.4393.4084-3.6283 2.545-4.511 5.09-9.0218 7.6349-13.5326z" fill="#cd7e22"></path><path d="m170.2176 78.6833c.4038.6242.8075 1.2483 1.2111 1.872.0002.3842.0007.7689.0012 1.1536l-.0161.0136c-4.7397 1.9013-9.4793 3.8027-14.2191 5.7041 3.5946-4.0261 8.0855-6.7173 13.0229-8.7433z" fill="#d8e48e"></path><path d="m116.7499 165.9487c-.3537.9471-.8775 1.8677-1.0296 2.8461-.4801 3.0895-.8209 6.2006-1.7924 9.263-1.367-4.6613-1.535-9.2964-.4074-13.9639 1.0768.6182 2.1531 1.2365 3.2294 1.8548z" fill="#88b227"></path><path d="m381.9839 430.5897c1.4189-1.5424 2.654-3.3246 4.2923-4.581 4.3648-3.3473 8.9031-6.4684 13.3725-9.6794-.2247.4923-.3149 1.1611-.6945 1.4507-5.6343 4.2994-11.3068 8.5486-16.9703 12.8097z" fill="#905714"></path><path d="m355.748 49.9489c2.6679-.4082 5.3456-.7631 7.9985-1.2524.98-.1808 1.9016-.6781 2.8501-1.0308.8353.7093 1.6704 1.4183 2.8745 2.4406-4.8821.4579-9.2654.869-13.6484 1.28-.0248-.4791-.0498-.9583-.0747-1.4374z" fill="#c7d558"></path><path d="m70.7769 164.874c-3.3478-.0162-6.6956-.0324-10.0423-.0487 3.7064-1.104 7.4117-2.208 11.1171-3.312-.1999 1.063-.3998 2.1259-.5998 3.1889-.158.0582-.3163.1154-.475.1718z" fill="#d8e48e"></path><path d="m225.3966 115.2879c-.5476.0017-1.0953.0033-1.643.005 1.2364-3.9809 3.086-7.6087 6.4148-10.4346-1.5905 3.4766-3.1811 6.9531-4.7718 10.4296z" fill="#8ebe5c"></path><path d="m449.7222 318.4627c-1.3392-.9456-2.6784-1.8912-4.0176-2.8366 1.5363-.2171 3.0725-.4344 4.983-.7046-.3964 1.454-.6809 2.4977-.9654 3.5412z" fill="#905714"></path><path d="m71.252 164.7023c.2-1.0629.3999-2.1259.5998-3.1889.9626-.2151 1.9252-.4302 2.888-.6453-.1919 1.1158-.384 2.2316-.5759 3.3473-.1744.1882-.3489.3767-.5241.5654-.7964-.026-1.5921-.0522-2.3878-.0785z" fill="#c7d558"></path><path d="m213.5532 140.3319c-.0123-1.1437-.0247-2.2875-.0373-3.4315.1667-.3628.3336-.7253.5005-1.0874.029 1.5173.0581 3.0343.0872 4.5513 0 0 .0301-.0366.0301-.0366-.1935.0014-.387.0028-.5805.0042z" fill="#89b02e"></path><path d="m310.557 71.7616c.5366-.377 1.0732-.7541 1.6108-1.1288-.5362.3779-1.0734.7534-1.6108 1.1288z" fill="#8ab32d"></path><path d="m160.1214 161.2303c.7691-.1026 1.5382-.2052 2.3074-.3073-.7691.1028-1.5383.2051-2.3074.3073z" fill="#70a00f"></path><path d="m312.1842 70.5866c.366-.2303.7321-.4607 1.0984-.6907-.3659.2304-.7322.4605-1.0984.6907z" fill="#8ab32d"></path><path d="m153.2245 91.4264c-.3732-.0146-.7465-.0293-1.1194-.0442.347-.2279.6937-.4556 1.0399-.6837.0362.2323.0728.4649.1094.6976z" fill="#88b227"></path><path d="m223.7751 115.2709c-.1941.3913-.3882.7825-.5822 1.1738.1941-.3913.3882-.7825.5822-1.1738z" fill="#8ebe5c"></path><path d="m432.3525 340.6037c-.0961-.2031-.1923-.4062-.2883-.6099.0963.203.1923.4065.2883.6099z" fill="#7d4407"></path><path d="m157.2262 87.4054c-.2368.1907-.4736.3813-.7105.572.2367-.1907.4736-.3813.7105-.572z" fill="#d8e48e"></path><path d="m172.1167 46.4315c-.2157-.2455-.4313-.491-.6472-.7369.2156.2453.4313.4911.6472.7369z" fill="#cce09a"></path><path d="m172.7423 46.9277c-.2237-.2026-.4475-.4052-.6715-.6087.2237.2023.4476.4055.6715.6087z" fill="#cce09a"></path><path d="m398.4142 399.7369c.1169-.0749.2338-.1498.3507-.2247-.0771.1146-.1543.2291-.2305.3446.0011.001-.1202-.1199-.1202-.1199z" fill="#61417b"></path><path d="m52.4993 167.8606c-.1636.1228-.3272.2457-.4904.3685.1637-.1229.3271-.2457.4904-.3685z" fill="#8bb42b"></path><path d="m399.6245 416.3439c.1914-.0034.3827-.0068.5743-.0099-.1913.0035-.3828.0067-.5743.0099z" fill="#905714"></path><path d="m417.8488 419.2213c.1337-.2192.2675-.4385.4005-.6576-.134.2193-.2672.4384-.4005.6576z" fill="#7d4407"></path><path d="m296.6736 31.0543c-.1979.0495-.3957.099-.5938.1485.1978-.0495.3958-.099.5938-.1485z" fill="#d8e48e"></path><path d="m421.3116 387.7822c-1.7778-1.0448-3.5398-2.1177-5.3373-3.1276-2.4635-1.384-2.8963-3.0173-1.3495-5.3115.781-1.1582 1.4952-2.3684 2.3541-3.4655 1.1636-1.4864 2.4506-1.8666 4.4565-1.1389 1.2083.4383 2.9294-.3972 4.3803-.8029 1.8583-.5195 3.1959-3.0218 5.6009-1.4422-.2108 3.3777-.3987 6.7569-.6393 10.1324-.1804 2.5309-2.0617 3.3185-4.1011 4.0673-.7874.2891-1.3706 1.1341-2.0468 1.7258 0 0 .026-.0213.026-.0213-1.1146-.2053-2.2292-.4105-3.3438-.6156zm5.6156-4.536c.6045-2.3319 1.209-4.6638 1.8136-6.9958-.2445-.1447-.4889-.2893-.7334-.4339-.7634.3947-1.5267.7894-2.29 1.184-1.6917-.0452-3.5335.3188-5.039-.2338-2.1261-.7804-3.4479-.0125-4.2141 1.5897-.78 1.6313-.9876 3.4496 1.3748 4.3966 1.8058.7239 3.5083 1.7057 5.3099 2.5993 1.1998-.6688 2.489-1.3874 3.7782-2.1061z" fill="#2f1c30"></path><path d="m382.6167 371.9661c8.9089-.2816 21.0746 4.0414 25.0919 9.5349-3.7729-.8741-6.8242-1.4793-9.8174-2.2969-5.2644-1.4381-10.4934-3.006-15.7376-4.5195.1541-.9061.3086-1.8123.4631-2.7185z" fill="#cd7e22"></path><path d="m416.6106 367.9534c-5.5485-7.5917-11.1043-15.1781-16.6255-22.7896-.3064-.4224-.3262-1.0527-.4795-1.5862l.1546-.1783c2.0739 1.8525 4.1463 3.7067 6.2228 5.5563.5401.481 1.0928.9479 1.6393 1.422.0325.1638.0839.3207.1531.4715.1614.1698.3236.3397.4857.5096 3.7432 5.419 8.1955 10.4398 9.6324 17.1538l.0314-.0298c-.4047-.1765-.8095-.3529-1.2143-.5293z" fill="#2f1c30"></path><path d="m428.8425 396.7753c.8341.869 1.8263 1.6346 2.474 2.6253 2.4113 3.6879 4.8424 7.377 6.9532 11.2367.5051.9237-.198 2.508-.3454 3.7885-1.0117-.7925-2.3547-1.3857-2.9736-2.4146-1.939-3.2231-3.6692-6.5786-5.3477-9.9488-.7459-1.4977-1.1743-3.1537-1.7467-4.7378.3288-.1831.6575-.3662.9862-.5493z" fill="#cd7e22"></path><path d="m382.6167 371.9661c-.1545.9062-.309 1.8124-.463 2.7185-1.442 7.2289-2.8844 14.4578-4.3282 21.6869-.4016.9159-.802 1.8317-1.3336 3.0481-1.0177-7.1807 1.3009-13.5702 2.731-20.084.4926-2.2437.6695-4.578 1.3815-6.7424.3084-.9375 1.6059-1.5496 2.4538-2.3089-.1474.561-.2945 1.1214-.4415 1.6818z" fill="#2f1c30"></path><path d="m414.3911 391.8419c-.1571.247-.5331 1.537-1.2227 1.7351-.7638.2193-2.0965-.3045-2.6846-.9544-1.4992-1.6567-2.7987-3.5134-4.0289-5.388-.8762-1.3351-.8615-2.6365 1.18-2.7452 2.5309-.1348 6.7962 4.0883 6.7562 7.3525z" fill="#7d4407"></path><path d="m424.6293 388.419c.1216.1827.2433.3654.0515.0774.0871.3351.0308.1183-.0255-.0985.0001-.0002-.026.0211-.026.0211z" fill="#2f1c30"></path><path d="m408.7191 403.2224c.058-.2474.1161-.4948.0171-.0728.2615-.3198.11-.1345-.0416.0508 0 .0001.0246.022.0245.022z" fill="#241536"></path><path d="m417.7936 368.5125c.0652.0399.1303.08.1955.1199-.0547-.0499-.1094-.0997-.164-.1497-.0001 0-.0315.0298-.0315.0298z" fill="#2f1c30"></path><path d="m408.1612 351.3587c-.1622-.1699-.3244-.3398-.4857-.5096.1624.1699.3241.3397.4857.5096z" fill="#7d4407"></path><path d="m194.7203 76.5632c.0501-.1511.1021-.3016.1552-.4519.5422-.0292 1.0852-.0578 1.6282-.0865.3472.0567.6944.1133 1.0412.1711 1.9753 6.4874 4.394 12.878 5.8222 19.4827 2.1109 9.7617 3.3864 19.6777.4601 29.581-.0984.3329-.2912.6379-.7534.9692-.9238-16.8999-2.7049-33.616-8.3535-49.6656z" fill="#88b227"></path><path d="m153.2545 91.3962c.9456.5764 2.0666.9843 2.8083 1.7564 5.0029 5.2081 9.9254 10.4933 14.9264 15.8094-1.0759-.739-2.2994-1.3477-3.229-2.257-4.652-4.5501-9.236-9.17-13.8118-13.7972-.3662-.3703-.4881-.9821-.7237-1.4816-.0002.0002.0298-.03.0298-.03z" fill="#88b227"></path><path d="m171.4299 81.7089c1.1941.9122 2.6222 1.6374 3.5318 2.7767 1.71 2.1419 3.1206 4.5228 4.6557 6.8044-.2324.2041-.4647.4083-.6971.6124-.5363-.3834-1.2345-.6568-1.5821-1.1684-2.0202-2.9727-3.958-6.0015-5.924-9.0114-.0003-.0001.0157-.0137.0157-.0137z" fill="#88b227"></path><path d="m218.2621 98.3632c-.0999 1.0932-.1998 2.1864-.3007 3.2798-.6009 1.3356-1.2008 2.671-2.1439 4.7707.4517-6.0805.8417-11.3314 1.2318-16.5824.1687-.0105.3373-.021.506-.0315.2356 2.8545.4712 5.7089.7068 8.5634z" fill="#8bb52b"></path><path d="m173.7239 110.7541c-.25-.0716-.5-.1433-.75-.2149.2482.0734.4964.1469.7447.2203z" fill="#88b227"></path><path d="m176.5502 129.1008c.0632.0293.1264.0587.1896.088-.0883.068-.1765.136-.2648.204-.033-.0585-.1038-.13-.0893-.1722.018-.0526.1064-.081.1645-.1198z" fill="#88b227"></path><path d="m210.6954 133.5034c-.0388.0773-.0777.1545-.1165.2318.0461-.0699.0923-.1398.1385-.2096.0002 0-.022-.0222-.022-.0222z" fill="#d9e58f"></path><path d="m173.7186 110.7595c.0821.0431.1643.0862.2464.1293-.0804-.0449-.1607-.0897-.2411-.1346 0-.0001-.0053.0053-.0053.0053z" fill="#88b227"></path><path d="m297.1192 52.3976c-1.4524 7.6689-2.8542 15.1623-.0074 22.6623-.2686.1971-.5373.3943-.8059.5914-1.1516-1.2636-2.9129-2.3465-3.3505-3.8219-2.0027-6.7527-.1419-13.0039 3.2381-18.9166.1136-.1988.4598-.2647.9257-.5152z" fill="#88b227"></path><path d="m316.1094 53.9937c-1.4278-6.3084-2.8555-12.6168-4.2833-18.9252.2573-.0625.5146-.1249.7719-.1874 2.6675 5.9826 4.6157 12.1471 4.5379 18.8241-.3422.0961-.6843.1923-1.0265.2885z" fill="#8bb42b"></path><path d="m342.1224 39.6425c.1984.1822.3968.3644.595.5467.3616.2036.7232.4072 1.0849.6107.943.7897 1.886 1.5795 2.8286 2.3703.2163 1.1561.433 2.3111.6497 3.4661-3.8842-1.8402-6.9682-4.233-8.5776-8.1175 0 0 .0337-.039.0337-.039 1.1285.3875 2.2571.7751 3.3857 1.1627z" fill="#8bb42b"></path><path d="m338.703 38.5186c-.2456-.0789-.4913-.1578-.7369-.2367.0496-.0716.138-.2086.1432-.2055.2137.1267.4199.266.6272.4035.0002-.0002-.0335.0387-.0335.0387z" fill="#8bb42b"></path><path d="m71.252 164.7023c.7957.0263 1.5915.0526 2.3879.0785-.8241 4.4346-1.7981 8.848-2.4394 13.3092-1.0287 7.1559-1.8139 14.3466-2.7496 21.5164-.4045 3.1-.9276 6.1845-2.0864 9.2861-.251-1.7884-.6115-3.5693-.7353-5.3665-.8787-12.7477 1.8549-25.0255 4.922-37.2568.1143-.4556.1519-.9303.2256-1.3957.1588-.0559.3171-.1131.4752-.1712z" fill="#88b227"></path><path d="m51.9658 238.218c-.1886-1.5194-.3773-3.0387-.5658-4.558-.3653-7.7176-1.0557-15.4377-.9969-23.1521.0502-6.5865.961-13.1664 1.4912-19.7492.295-.0059.59-.0117.885-.0176.1009.6635.2803 1.3259.2891 1.9905.0399 3.0287-.0039 6.0586.0476 9.087.172 10.1073.3032 20.2162.5997 30.3201.0989 3.3715.6483 6.7297.9928 10.0937-.9135-1.3383-1.8281-2.6763-2.7427-4.0144z" fill="#88b227"></path><path d="m51.9658 238.218c.9146 1.338 1.8292 2.676 2.7427 4.0143.4217 1.8954.8445 3.7905 1.2677 5.6861-2.9518-.5982-2.5668-3.3684-3.3145-5.3139-.5196-1.3516-.4837-2.9167-.6959-4.3865z" fill="#73a212"></path><path d="m166.7993 147.0159c-15.126.109-28.7454-4.5288-41.1053-13.1344 12.8372 7.1019 27.2374 9.2798 41.1053 13.1344z" fill="#70a00f"></path><path d="m171.4462 151.3822c8.0646-.399 16.2761-.8053 24.463-1.2104-3.5814 6.1343-18.9079 6.7413-24.463 1.2104z" fill="#70a00f"></path><path d="m213.5532 140.3319c.1935-.0014.387-.0028.5805-.0042-.2099.5761-.4198 1.1522-.6299 1.7282.0164-.5747.0329-1.1493.0494-1.724z" fill="#241536"></path><path d="m123.1813 131.9567c.0203.0713.0757.1889.0542.2052-.0634.0481-.1573.0562-.2392.08-.0203-.0714-.0758-.1892-.0544-.2053.0636-.048.1574-.0561.2394-.0799z" fill="#70a00f"></path><path d="m38.8711 255.8502c-1.7028-2.358-3.9279-4.5088-4.9676-7.1298-1.1352-2.8619-1.1728-6.1591-1.7754-9.788 2.2083 5.2351 4.1743 9.8552 6.0966 14.4935.3168.7644.4418 1.6082.6555 2.4153-.0001-.0001-.0091.009-.0091.009z" fill="#73a212"></path><path d="m38.8801 255.8411c.0805.0445.161.0891.2415.1336-.0835-.0415-.167-.0831-.2506-.1246.0001.0001.0091-.009.0091-.009z" fill="#73a212"></path><path d="m101.98 161.906c.6265.1742 1.253.3484 1.8805.522-.893 12.215-1.787 24.4306-2.6811 36.6462-.3559-.0238-.7118-.0476-1.0677-.0713-2.3977-12.4794.4483-24.7613 1.8683-37.0969z" fill="#88b227"></path><path d="m155.4643 75.4677c-6.1749.8568-10.3412-1.9204-13.4429-6.5652-4.9472-7.4086-7.388-15.2831-3.9542-24.1827-.3236 13.692 5.0922 24.0731 17.3971 30.7479z" fill="#71aa2f"></path><path d="m150.5699 46.4867c5.2835 3.9389 9.6122 8.5835 11.2339 15.2292-.2528.1898-.5056.3796-.7583.5694-3.7693-5.0541-7.5386-10.1082-11.3079-15.1623.2774-.2121.5548-.4242.8323-.6363z" fill="#71aa2f"></path><path d="m140.1485 44.1918c4.949 4.1329 7.7046 9.574 9.3687 15.6659-4.0915-4.646-6.6457-10.2079-9.3608-15.6739z" fill="#cce09a"></path><path d="m140.1564 44.1839c-.0793-.0802-.1585-.1605-.2378-.2407.0515.0139.1241.0118.1499.0454.0426.0555.0549.1342.08.2032 0 0 .0079-.0079.0079-.0079z" fill="#cce09a"></path><path d="m170.307 64.6708c.0833.0749.1667.1498.2501.2247-.0513-.0098-.1214-.0023-.1498-.0332-.0471-.0512-.0675-.1271-.0992-.1925.0001 0-.0011.001-.0011.001z" fill="#cce09a"></path><path d="m196.5037 76.0249c-.543.0287-1.086.0573-1.6282.0865.2005-.5184.4001-1.0373.5996-1.5562.3429.4899.6857.9798 1.0286 1.4697z" fill="#a7c84c"></path><path d="m343.8023 40.7998c-.3617-.2035-.7233-.407-1.0849-.6107.3617.2035.7233.4071 1.0849.6107z" fill="#a7c84c"></path><path d="m399.5056 343.5775c-.5368-.3206-1.0736-.6412-1.6105-.9617.3132-.3596.6263-.7192.9395-1.0788.2748.6212.5496 1.2425.825 1.863.0006-.0007-.154.1775-.154.1775z" fill="#2f1c30"></path><path d="m426.9272 383.2462c-1.2893.7187-2.5785 1.4373-3.7781 2.106-1.8016-.8935-3.5041-1.8754-5.3099-2.5993-2.3625-.947-2.1548-2.7653-1.3748-4.3966.7661-1.6021 2.0879-2.37 4.2141-1.5897 1.5055.5526 3.3473.1886 5.0391.2339.4033 2.082.8064 4.1638 1.2096 6.2457z" fill="#7d4407"></path><path d="m426.9272 383.2462c-.4032-2.0819-.8064-4.1637-1.2097-6.2456.7632-.3947 1.5265-.7894 2.2899-1.1841.2445.1447.4889.2893.7334.4339-.6045 2.332-1.209 4.6639-1.8136 6.9958z" fill="#cd7e22"></path></g></svg>